<?xml version="1.0" encoding="utf-8"?>
<!-- Generator: Adobe Illustrator 16.0.0, SVG Export Plug-In . SVG Version: 6.00 Build 0)  -->
<!DOCTYPE svg PUBLIC "-//W3C//DTD SVG 1.1//EN" "http://www.w3.org/Graphics/SVG/1.1/DTD/svg11.dtd">
<svg version="1.1" id="Layer_1" xmlns="http://www.w3.org/2000/svg" xmlns:xlink="http://www.w3.org/1999/xlink" x="0px" y="0px"
	 width="56.693px" height="56.693px" viewBox="0 0 56.693 56.693" enable-background="new 0 0 56.693 56.693" xml:space="preserve">
<g>
	<path fill="#888888" d="M28.119,19.168c-5.164,0-9.365,4.201-9.365,9.365c0,5.162,4.201,9.363,9.365,9.363s9.363-4.201,9.363-9.363
		C37.481,23.369,33.282,19.168,28.119,19.168z M28.119,33.896c-2.958,0-5.365-2.406-5.365-5.363c0-2.959,2.407-5.365,5.365-5.365
		c2.957,0,5.363,2.406,5.363,5.365C33.481,31.49,31.075,33.896,28.119,33.896z"/>
	<path fill="#888888" d="M51.251,26.576h-9.09c-1.104,0-2,0.896-2,2s0.896,2,2,2h9.09c1.105,0,2-0.896,2-2
		S52.356,26.576,51.251,26.576z"/>
	<path fill="#888888" d="M16.106,28.576c0-1.104-0.896-2-2-2h-9.09c-1.104,0-2,0.896-2,2s0.896,2,2,2h9.09
		C15.21,30.576,16.106,29.68,16.106,28.576z"/>
	<path fill="#888888" d="M28.132,16.549c1.104,0,2-0.895,2-2V5.458c0-1.104-0.895-2-2-2c-1.104,0-2,0.896-2,2v9.091
		C26.132,15.654,27.028,16.549,28.132,16.549z"/>
	<path fill="#888888" d="M28.132,40.602c-1.104,0-2,0.896-2,2v9.092c0,1.104,0.896,2,2,2c1.104,0,2-0.896,2-2v-9.092
		C30.132,41.498,29.237,40.602,28.132,40.602z"/>
	<path fill="#888888" d="M38.349,20.361c0.512,0,1.022-0.195,1.414-0.586l6.428-6.427c0.781-0.781,0.781-2.049,0-2.828
		c-0.781-0.782-2.047-0.782-2.828,0l-6.428,6.427c-0.781,0.781-0.781,2.047,0,2.828C37.325,20.166,37.837,20.361,38.349,20.361z"/>
	<path fill="#888888" d="M16.505,37.375l-6.428,6.428c-0.781,0.781-0.781,2.048,0,2.828c0.391,0.392,0.902,0.586,1.414,0.586
		s1.023-0.194,1.414-0.586l6.428-6.428c0.781-0.779,0.781-2.047,0-2.828C18.552,36.596,17.287,36.596,16.505,37.375z"/>
	<path fill="#888888" d="M39.763,37.375c-0.781-0.778-2.048-0.778-2.828,0c-0.781,0.781-0.781,2.049,0,2.828l6.428,6.428
		c0.391,0.392,0.902,0.586,1.414,0.586s1.022-0.194,1.414-0.586c0.781-0.78,0.781-2.047,0-2.828L39.763,37.375z"/>
	<path fill="#888888" d="M16.505,19.775c0.392,0.391,0.902,0.586,1.414,0.586c0.513,0,1.023-0.195,1.414-0.586
		c0.781-0.781,0.781-2.047,0-2.828l-6.428-6.427c-0.781-0.782-2.047-0.782-2.828,0c-0.781,0.779-0.781,2.047,0,2.828L16.505,19.775z
		"/>
</g>
</svg>
