<?xml version="1.0" encoding="utf-8"?>
<!-- Generator: Adobe Illustrator 16.0.0, SVG Export Plug-In . SVG Version: 6.00 Build 0)  -->
<!DOCTYPE svg PUBLIC "-//W3C//DTD SVG 1.1//EN" "http://www.w3.org/Graphics/SVG/1.1/DTD/svg11.dtd">
<svg version="1.1" id="Layer_1" xmlns="http://www.w3.org/2000/svg" xmlns:xlink="http://www.w3.org/1999/xlink" x="0px" y="0px"
	 width="56.693px" height="56.693px" viewBox="0 0 56.693 56.693" enable-background="new 0 0 56.693 56.693" xml:space="preserve">
<g>
	<path fill="#888888" d="M50.81,38.214c-0.408-0.481-1.08-0.653-1.672-0.432c-2.775,1.049-5.58,1.58-8.339,1.58h-0.002
		c-7.342,0-14.088-3.799-18.05-10.158c-4.012-6.44-4.375-14.081-0.996-20.959c0.226-0.457,0.201-0.998-0.062-1.434
		c-0.264-0.438-0.73-0.711-1.239-0.728l-0.469-0.016c-0.233-0.01-0.482,0.041-0.701,0.145C9.624,10.831,4.188,19.856,4.74,30.356
		C5.416,43.2,16.456,53.263,29.874,53.26c0.59,0,1.185-0.02,1.777-0.061c8.283-0.566,14.42-4.783,19.313-13.266
		C51.284,39.385,51.222,38.696,50.81,38.214z"/>
	<path fill="#888888" d="M35.173,23.657l-1.752,5.35c-0.067,0.207,0.013,0.433,0.199,0.562c0.096,0.063,0.209,0.098,0.322,0.098
		c0.106,0,0.217-0.028,0.309-0.09l4.97-3.197l4.969,3.197c0.188,0.123,0.442,0.119,0.633-0.008c0.186-0.129,0.266-0.354,0.197-0.562
		l-1.75-5.35l4.815-3.377c0.187-0.131,0.265-0.357,0.191-0.564c-0.07-0.207-0.273-0.348-0.508-0.354l-6.049-0.113l-1.984-5.284
		c-0.076-0.205-0.283-0.34-0.516-0.34c-0.23,0-0.438,0.135-0.515,0.34l-1.985,5.284l-6.05,0.113
		c-0.229,0.006-0.436,0.146-0.508,0.354s0.008,0.435,0.191,0.564L35.173,23.657z"/>
	<path fill="#888888" d="M43.69,8.336l-0.66,2.158c-0.025,0.084,0.006,0.174,0.074,0.228c0.037,0.026,0.08,0.038,0.121,0.038
		s0.082-0.012,0.116-0.034l1.873-1.291l1.873,1.291c0.07,0.049,0.166,0.047,0.238-0.004c0.07-0.054,0.1-0.144,0.074-0.228
		l-0.66-2.158l1.816-1.36c0.069-0.054,0.1-0.144,0.071-0.228s-0.104-0.141-0.19-0.145l-2.281-0.045L45.409,4.43
		c-0.029-0.084-0.106-0.14-0.193-0.14c-0.086,0-0.164,0.056-0.192,0.14l-0.75,2.129l-2.277,0.045
		c-0.09,0.004-0.166,0.061-0.192,0.145c-0.027,0.084,0.002,0.174,0.073,0.228L43.69,8.336z"/>
</g>
</svg>
