<?xml version="1.0" encoding="utf-8"?>
<!-- Generator: Adobe Illustrator 16.0.0, SVG Export Plug-In . SVG Version: 6.00 Build 0)  -->
<!DOCTYPE svg PUBLIC "-//W3C//DTD SVG 1.1//EN" "http://www.w3.org/Graphics/SVG/1.1/DTD/svg11.dtd">
<svg version="1.1" id="Layer_1" xmlns="http://www.w3.org/2000/svg" xmlns:xlink="http://www.w3.org/1999/xlink" x="0px" y="0px"
	 width="56.693px" height="56.693px" viewBox="0 0 56.693 56.693" enable-background="new 0 0 56.693 56.693" xml:space="preserve">
<path fill="#888888" d="M43.052,24.503c-0.312,0-0.621,0.013-0.932,0.037c-1.38-4.154-5.297-7.084-9.826-7.084
	c-0.413,0-1.117,0.033-1.802,0.111c-2.559-2.124-5.343-3.159-8.483-3.159c-6.824,0-12.381,4.87-13.565,11.721
	c-2.952,1.881-4.874,5.015-4.874,8.072c0,5.35,4.44,9.701,9.898,9.701h29.583c5.625,0,10.38-4.441,10.38-9.701
	C53.431,28.944,48.677,24.503,43.052,24.503z M43.052,39.903H13.468c-3.644,0-5.898-2.959-5.898-5.701
	c0-1.877,1.493-3.953,3.63-5.045l0.965-0.494l0.113-1.078c0.561-5.315,4.654-9.176,9.731-9.176c2.458,0,4.466,0.848,6.509,2.746
	l0.782,0.727l1.041-0.246c0.39-0.092,1.339-0.18,1.953-0.18c3.219,0,5.932,2.408,6.312,5.603l0.271,2.286l2.228-0.59
	c0.631-0.168,1.287-0.252,1.949-0.252c3.397,0,6.379,2.664,6.379,5.699C49.431,37.239,46.45,39.903,43.052,39.903z"/>
</svg>
