<?xml version="1.0" encoding="utf-8"?>
<!-- Generator: Adobe Illustrator 16.0.0, SVG Export Plug-In . SVG Version: 6.00 Build 0)  -->
<!DOCTYPE svg PUBLIC "-//W3C//DTD SVG 1.1//EN" "http://www.w3.org/Graphics/SVG/1.1/DTD/svg11.dtd">
<svg version="1.1" id="Layer_1" xmlns="http://www.w3.org/2000/svg" xmlns:xlink="http://www.w3.org/1999/xlink" x="0px" y="0px"
	 width="56.693px" height="56.693px" viewBox="0 0 56.693 56.693" enable-background="new 0 0 56.693 56.693" xml:space="preserve">
<g>
	<path fill="#888888" d="M43.033,14.622c-0.308,0-0.616,0.012-0.922,0.037c-1.392-4.17-5.325-7.109-9.877-7.109
		c-0.413,0-1.117,0.031-1.804,0.109c-2.57-2.131-5.367-3.17-8.522-3.17c-6.858,0-12.441,4.891-13.634,11.773
		c-2.965,1.893-4.896,5.042-4.896,8.115c0,5.379,4.467,9.756,9.956,9.756h29.698c5.657,0,10.438-4.469,10.438-9.756
		S48.69,14.622,43.033,14.622z"/>
	<path fill="#888888" d="M45.521,38.087c-6.734,5.066-15.815,1.636-15.822,1.633C17.89,34.435,8.82,39.597,8.44,39.819
		c-0.944,0.553-1.25,1.744-0.688,2.668s1.788,1.229,2.736,0.686c0.312-0.178,7.718-4.303,17.628,0.132
		c0.258,0.102,3.841,1.475,8.457,1.475c3.533,0,7.672-0.805,11.389-3.6c0.875-0.658,1.037-1.884,0.363-2.736
		C47.65,37.589,46.394,37.431,45.521,38.087z"/>
	<path fill="#888888" d="M45.521,47.368c-6.734,5.066-15.815,1.633-15.822,1.633C17.89,43.714,8.82,48.878,8.44,49.101
		c-0.944,0.553-1.25,1.743-0.688,2.666c0.562,0.926,1.788,1.229,2.736,0.686c0.312-0.178,7.718-4.303,17.628,0.133
		c0.258,0.103,3.841,1.476,8.457,1.476c3.533,0,7.672-0.806,11.389-3.601c0.875-0.658,1.037-1.883,0.363-2.737
		C47.65,46.87,46.394,46.71,45.521,47.368z"/>
</g>
</svg>
