<?xml version="1.0" encoding="utf-8"?>
<!-- Generator: Adobe Illustrator 16.0.0, SVG Export Plug-In . SVG Version: 6.00 Build 0)  -->
<!DOCTYPE svg PUBLIC "-//W3C//DTD SVG 1.1//EN" "http://www.w3.org/Graphics/SVG/1.1/DTD/svg11.dtd">
<svg version="1.1" id="Layer_1" xmlns="http://www.w3.org/2000/svg" xmlns:xlink="http://www.w3.org/1999/xlink" x="0px" y="0px"
	 width="56.693px" height="56.693px" viewBox="0 0 56.693 56.693" enable-background="new 0 0 56.693 56.693" xml:space="preserve">
<g>
	<path fill="#888888" d="M42.632,13.373c-0.305,0-0.606,0.012-0.909,0.035c-1.375-4.116-5.263-7.02-9.755-7.02
		c-0.487,0-1.155,0.037-1.778,0.108c-2.538-2.104-5.299-3.131-8.414-3.131c-6.772,0-12.284,4.829-13.462,11.625
		c-2.929,1.87-4.833,4.977-4.833,8.014c0,5.312,4.409,9.631,9.829,9.631h1.829c-0.015-0.942,0.217-1.889,0.694-2.731l8.693-15.316
		c0.955-1.682,2.749-2.726,4.682-2.726c1.936,0,3.729,1.045,4.682,2.726l8.694,15.318c0.474,0.834,0.703,1.768,0.695,2.697
		c5.297-0.326,9.656-4.582,9.656-9.599C52.937,17.783,48.218,13.373,42.632,13.373z"/>
	<path fill="#888888" d="M20.516,34.945h17.385c0.848,0,1.633-0.451,2.059-1.185c0.429-0.733,0.433-1.639,0.015-2.377L31.28,16.07
		c-0.422-0.747-1.213-1.208-2.072-1.208c-0.857,0-1.648,0.461-2.073,1.208l-8.691,15.313c-0.419,0.738-0.414,1.644,0.014,2.377
		C18.882,34.494,19.667,34.945,20.516,34.945z M28.301,19.346c0.284-0.306,0.661-0.459,1.12-0.459c0.566,0,0.955,0.204,1.152,0.61
		c0.182,0.373,0.271,0.89,0.271,1.578c0,0.389-0.021,0.791-0.063,1.193l-0.379,4.338c-0.043,0.539-0.133,0.947-0.279,1.242
		c-0.16,0.327-0.438,0.5-0.808,0.5c-0.375,0-0.652-0.17-0.801-0.49c-0.132-0.285-0.224-0.699-0.277-1.271l-0.283-4.221
		c-0.053-0.832-0.078-1.416-0.078-1.777C27.876,20.064,28.019,19.646,28.301,19.346z M28.304,30.008
		c0.283-0.282,0.637-0.428,1.047-0.428s0.765,0.146,1.056,0.428c0.289,0.285,0.438,0.636,0.438,1.039
		c0,0.455-0.15,0.818-0.449,1.086c-0.291,0.259-0.638,0.39-1.027,0.39c-0.395,0-0.744-0.129-1.039-0.385
		c-0.301-0.263-0.453-0.63-0.453-1.091C27.876,30.643,28.021,30.293,28.304,30.008z"/>
	<path fill="#888888" d="M18.232,39.67c0-0.133-0.053-0.26-0.146-0.354l-0.705-0.705v-0.994c0-0.277-0.224-0.5-0.5-0.5h-0.996
		l-0.702-0.705c-0.195-0.195-0.513-0.195-0.707,0l-0.703,0.705h-0.997c-0.276,0-0.5,0.223-0.5,0.5v0.996l-0.704,0.703
		c-0.094,0.094-0.146,0.221-0.146,0.354s0.054,0.261,0.146,0.354l0.704,0.705v0.994c0,0.276,0.224,0.5,0.5,0.5h0.995l0.705,0.704
		c0.098,0.099,0.226,0.146,0.354,0.146s0.256-0.049,0.354-0.146l0.705-0.704h0.993c0.276,0,0.5-0.224,0.5-0.5v-0.994l0.705-0.705
		C18.179,39.93,18.232,39.802,18.232,39.67z"/>
	<path fill="#888888" d="M31.675,39.67c0-0.133-0.053-0.26-0.146-0.354l-0.705-0.703v-0.996c0-0.277-0.223-0.5-0.5-0.5h-0.996
		l-0.704-0.705c-0.188-0.188-0.52-0.188-0.707,0l-0.703,0.705h-0.997c-0.275,0-0.5,0.223-0.5,0.5v0.996l-0.702,0.703
		c-0.195,0.194-0.195,0.512,0,0.707l0.702,0.703v0.996c0,0.276,0.225,0.5,0.5,0.5h0.996l0.704,0.704
		c0.095,0.095,0.222,0.146,0.354,0.146s0.26-0.053,0.354-0.146l0.705-0.704h0.995c0.277,0,0.5-0.224,0.5-0.5v-0.994l0.705-0.705
		C31.622,39.93,31.675,39.802,31.675,39.67z"/>
	<path fill="#888888" d="M23.937,49.23v-0.996c0-0.275-0.225-0.5-0.5-0.5h-0.996l-0.703-0.703c-0.094-0.094-0.221-0.146-0.354-0.146
		c-0.133,0-0.26,0.054-0.354,0.146l-0.703,0.703H19.33c-0.275,0-0.5,0.225-0.5,0.5v0.998l-0.703,0.703
		c-0.094,0.094-0.146,0.221-0.146,0.354s0.053,0.26,0.146,0.354l0.703,0.703v0.995c0,0.275,0.225,0.5,0.5,0.5h0.996l0.705,0.705
		c0.094,0.095,0.221,0.146,0.354,0.146c0.134,0,0.261-0.053,0.354-0.146l0.704-0.705h0.995c0.275,0,0.5-0.225,0.5-0.5v-0.995
		l0.704-0.703c0.194-0.195,0.194-0.513,0-0.707L23.937,49.23z"/>
	<path fill="#888888" d="M37.378,49.23v-0.996c0-0.275-0.223-0.5-0.5-0.5h-0.996l-0.702-0.703c-0.188-0.188-0.521-0.188-0.707,0
		l-0.703,0.703h-0.996c-0.275,0-0.5,0.225-0.5,0.5v0.996l-0.703,0.705c-0.195,0.194-0.195,0.512,0,0.707l0.703,0.702v0.996
		c0,0.275,0.225,0.5,0.5,0.5h0.996l0.703,0.705c0.094,0.095,0.221,0.146,0.354,0.146s0.26-0.053,0.354-0.146l0.704-0.705h0.994
		c0.277,0,0.5-0.225,0.5-0.5v-0.993l0.705-0.705c0.095-0.095,0.146-0.222,0.146-0.354s-0.053-0.26-0.146-0.354L37.378,49.23z"/>
	<path fill="#888888" d="M45.024,38.613v-0.996c0-0.277-0.226-0.5-0.5-0.5h-0.998l-0.703-0.705c-0.188-0.188-0.52-0.188-0.707,0
		l-0.703,0.705h-0.996c-0.274,0-0.5,0.223-0.5,0.5v0.996l-0.703,0.703c-0.194,0.194-0.194,0.512,0,0.707l0.703,0.705v0.994
		c0,0.276,0.226,0.5,0.5,0.5h0.996l0.703,0.704c0.094,0.095,0.221,0.146,0.354,0.146c0.133,0,0.26-0.053,0.354-0.146l0.705-0.704
		h0.996c0.274,0,0.5-0.224,0.5-0.5v-0.994l0.703-0.705c0.094-0.094,0.146-0.222,0.146-0.354s-0.053-0.26-0.146-0.354L45.024,38.613z
		"/>
</g>
</svg>
