<?xml version="1.0" encoding="utf-8"?>
<!-- Generator: Adobe Illustrator 16.0.0, SVG Export Plug-In . SVG Version: 6.00 Build 0)  -->
<!DOCTYPE svg PUBLIC "-//W3C//DTD SVG 1.1//EN" "http://www.w3.org/Graphics/SVG/1.1/DTD/svg11.dtd">
<svg version="1.1" id="Layer_1" xmlns="http://www.w3.org/2000/svg" xmlns:xlink="http://www.w3.org/1999/xlink" x="0px" y="0px"
	 width="56.693px" height="56.693px" viewBox="0 0 56.693 56.693" enable-background="new 0 0 56.693 56.693" xml:space="preserve">
<g>
	<path fill="#888888" d="M38.099,36.248c-0.211,0-0.425,0.008-0.636,0.021c-1.293-3.629-4.758-6.17-8.757-6.17
		c-0.357,0-0.926,0.022-1.496,0.084c-2.258-1.847-4.715-2.746-7.483-2.746c-6.049,0-10.98,4.287-12.075,10.334
		c-2.595,1.694-4.279,4.479-4.279,7.203c0,4.809,3.991,8.721,8.896,8.721h25.83c5.05,0,9.315-3.994,9.315-8.721
		C47.415,40.244,43.148,36.248,38.099,36.248z M38.099,49.693h-25.83c-3.024,0-4.896-2.449-4.896-4.721
		c0-1.552,1.247-3.271,3.032-4.183l0.965-0.492l0.113-1.078c0.476-4.512,3.942-7.784,8.245-7.784c2.076,0,3.774,0.719,5.51,2.33
		l0.783,0.729l1.04-0.248c0.323-0.076,1.125-0.147,1.646-0.147c2.682,0,4.942,2.004,5.259,4.666l0.271,2.282l2.225-0.588
		c0.531-0.139,1.082-0.211,1.638-0.211c3.043,0,5.315,2.494,5.315,4.726C43.415,47.201,41.142,49.693,38.099,49.693z"/>
	<path fill="#888888" d="M34.481,29.807c3.985,0,7.229-3.242,7.229-7.229c0-3.984-3.242-7.228-7.229-7.228
		c-3.987,0-7.229,3.243-7.229,7.228C27.253,26.564,30.495,29.807,34.481,29.807z M34.481,19.35c1.78,0,3.229,1.448,3.229,3.229
		c0,1.781-1.447,3.229-3.229,3.229c-1.779,0-3.229-1.447-3.229-3.229C31.253,20.799,32.702,19.35,34.481,19.35z"/>
	<path fill="#888888" d="M34.495,12.297c1.105,0,2-0.896,2-2V5.995c0-1.104-0.895-2-2-2c-1.104,0-2,0.896-2,2v4.303
		C32.495,11.402,33.392,12.297,34.495,12.297z"/>
	<path fill="#888888" d="M51.314,20.814h-4.302c-1.105,0-2,0.895-2,2c0,1.104,0.895,2,2,2h4.302c1.104,0,2-0.896,2-2
		C53.314,21.709,52.419,20.814,51.314,20.814z"/>
	<path fill="#888888" d="M17.675,24.814h4.303c1.104,0,2-0.896,2-2c0-1.105-0.896-2-2-2h-4.303c-1.104,0-2,0.895-2,2
		C15.675,23.918,16.571,24.814,17.675,24.814z"/>
	<path fill="#888888" d="M43.347,15.963c0.512,0,1.022-0.194,1.414-0.587l3.042-3.042c0.78-0.779,0.78-2.047,0-2.828
		c-0.78-0.779-2.049-0.779-2.828,0l-3.042,3.042c-0.781,0.781-0.781,2.049,0,2.828C42.323,15.768,42.835,15.963,43.347,15.963z"/>
	<path fill="#888888" d="M24.231,15.376c0.391,0.392,0.901,0.586,1.414,0.586c0.512,0,1.023-0.194,1.415-0.586
		c0.78-0.781,0.78-2.048,0-2.829l-3.042-3.041c-0.781-0.779-2.047-0.779-2.829,0c-0.781,0.782-0.781,2.049,0,2.829L24.231,15.376z"
		/>
	<path fill="#888888" d="M44.761,30.25c-0.781-0.781-2.048-0.781-2.828,0c-0.781,0.781-0.781,2.047,0,2.828l3.041,3.043
		c0.391,0.392,0.902,0.586,1.415,0.586c0.512,0,1.022-0.194,1.414-0.586c0.78-0.781,0.78-2.047,0.001-2.828L44.761,30.25z"/>
</g>
</svg>
