<?xml version="1.0" encoding="utf-8"?>
<!-- Generator: Adobe Illustrator 16.0.0, SVG Export Plug-In . SVG Version: 6.00 Build 0)  -->
<!DOCTYPE svg PUBLIC "-//W3C//DTD SVG 1.1//EN" "http://www.w3.org/Graphics/SVG/1.1/DTD/svg11.dtd">
<svg version="1.1" id="Layer_1" xmlns="http://www.w3.org/2000/svg" xmlns:xlink="http://www.w3.org/1999/xlink" x="0px" y="0px"
	 width="56.693px" height="56.693px" viewBox="0 0 56.693 56.693" enable-background="new 0 0 56.693 56.693" xml:space="preserve">
<g>
	<path fill="#888888" d="M53.681,26.924c-0.019-0.506-0.291-0.969-0.728-1.229c-0.432-0.262-0.971-0.283-1.424-0.06
		c-2.139,1.05-4.381,1.582-6.668,1.582c-4.9,0-9.51-2.438-12.33-6.52c-2.834-4.1-3.359-9.094-1.48-14.061
		c0.224-0.592,0.052-1.259-0.43-1.666C30.14,4.562,29.456,4.5,28.909,4.815c-6.098,3.518-9.261,8.134-9.67,14.111
		c-0.118,1.716,0.011,3.429,0.355,5.089C19.732,24.014,19.866,24,20.003,24c0.157,0,0.313,0.006,0.468,0.017l0.117,0.006
		c0.755,0.028,1.436,0.1,2.079,0.215c0.835,0.152,1.654,0.377,2.436,0.668c1.188,0.443,2.338,1.055,3.432,1.826
		c0.223-0.01,0.437-0.015,0.631-0.015c4.553,0,8.656,2.445,10.836,6.341c0.883,0.09,1.763,0.272,2.625,0.549
		c0.894,0.287,1.761,0.678,2.578,1.158c0.533,0.312,1.027,0.67,1.5,1.051c2.871-1.826,5.238-4.498,6.844-7.855
		c0.103-0.217,0.152-0.455,0.146-0.694L53.681,26.924z"/>
	<path fill="#888888" d="M43.683,37.35c-0.617-0.363-1.277-0.664-1.976-0.888c-0.936-0.301-1.93-0.471-2.959-0.471
		c-0.229,0-0.457,0.008-0.684,0.023c-0.053-0.146-0.113-0.289-0.172-0.433c-1.416-3.469-4.818-5.867-8.729-5.867
		c-0.369,0-0.957,0.025-1.541,0.089c-1.135-0.931-2.322-1.625-3.569-2.091c-0.623-0.231-1.265-0.405-1.922-0.524
		c-0.54-0.099-1.095-0.148-1.657-0.17C20.317,27.014,20.163,27,20.003,27c-6.153,0-11.169,4.367-12.273,10.525
		c-2.645,1.719-4.36,4.549-4.36,7.317c0,4.88,4.05,8.851,9.026,8.851h26.354c5.125,0,9.455-4.053,9.455-8.851
		C48.204,41.725,46.37,38.93,43.683,37.35z"/>
</g>
</svg>
