<?xml version="1.0" encoding="utf-8"?>
<!-- Generator: Adobe Illustrator 16.0.0, SVG Export Plug-In . SVG Version: 6.00 Build 0)  -->
<!DOCTYPE svg PUBLIC "-//W3C//DTD SVG 1.1//EN" "http://www.w3.org/Graphics/SVG/1.1/DTD/svg11.dtd">
<svg version="1.1" id="Layer_1" xmlns="http://www.w3.org/2000/svg" xmlns:xlink="http://www.w3.org/1999/xlink" x="0px" y="0px"
	 width="56.693px" height="56.693px" viewBox="0 0 56.693 56.693" enable-background="new 0 0 56.693 56.693" xml:space="preserve">
<g>
	<path fill="#888888" d="M45.759,12.161c-1.156-2.873-3.971-4.859-7.2-4.859c-0.257,0-0.644,0.017-1.05,0.054
		C35.687,5.906,33.702,5.2,31.468,5.2c-3.195,0-6.006,1.456-7.854,3.809c1.833,0.436,3.567,1.227,5.185,2.369
		c0.23-0.01,0.452-0.016,0.655-0.016c4.591,0,8.761,2.509,10.948,6.418c4.627,0.455,8.6,3.42,10.354,7.393
		c1.81-1.352,2.994-3.426,2.994-5.707C53.751,15.437,50.04,12.083,45.759,12.161z"/>
	<path fill="#888888" d="M48.063,26.487c0-0.002-0.001-0.002-0.002-0.004c-0.083-0.197-0.175-0.394-0.273-0.584
		c-0.01-0.021-0.021-0.041-0.032-0.062c-0.397-0.764-0.908-1.467-1.512-2.096c-0.042-0.043-0.084-0.088-0.127-0.131
		c-0.13-0.131-0.264-0.26-0.401-0.383c-0.052-0.045-0.104-0.088-0.156-0.134c-0.249-0.213-0.51-0.413-0.78-0.604
		c-0.071-0.049-0.141-0.102-0.213-0.148c-0.119-0.079-0.242-0.149-0.365-0.225c-0.113-0.068-0.229-0.135-0.346-0.199
		c-0.116-0.062-0.232-0.123-0.353-0.182c-0.143-0.07-0.289-0.137-0.436-0.199c-0.103-0.045-0.201-0.09-0.304-0.131
		c-0.246-0.098-0.497-0.186-0.754-0.264c-0.068-0.021-0.142-0.037-0.213-0.058c-0.201-0.057-0.405-0.108-0.613-0.151
		c-0.096-0.021-0.19-0.037-0.286-0.056c-0.198-0.035-0.397-0.063-0.601-0.088c-0.088-0.012-0.176-0.022-0.266-0.031
		c-0.287-0.024-0.576-0.043-0.87-0.043c-0.235,0-0.47,0.009-0.704,0.023c-1.313-3.75-4.884-6.381-9.005-6.381
		c-0.375,0-0.971,0.025-1.564,0.092c-0.405-0.332-0.818-0.624-1.235-0.896c-0.088-0.059-0.176-0.115-0.264-0.171
		c-0.427-0.264-0.857-0.504-1.299-0.709c-0.006-0.003-0.013-0.005-0.02-0.008c-0.455-0.21-0.92-0.382-1.392-0.527
		c-0.044-0.015-0.086-0.028-0.129-0.041c-1.077-0.321-2.198-0.489-3.378-0.489c-6.229,0-11.304,4.421-12.42,10.656
		c-2.677,1.737-4.416,4.602-4.416,7.401c0,4.818,3.908,8.75,8.778,8.933c-0.662,0.762-1.226,1.52-1.366,2.028
		c-0.387,1.404,0.438,2.857,1.841,3.244c1.404,0.387,2.856-0.438,3.243-1.842c0.187-0.674-0.04-2.105-0.328-3.414h7.135
		c-0.626,0.729-1.151,1.447-1.286,1.936c-0.388,1.404,0.438,2.855,1.841,3.242c1.404,0.388,2.855-0.438,3.243-1.842
		c0.182-0.66-0.031-2.049-0.313-3.336h7.051c-0.597,0.703-1.09,1.389-1.22,1.857c-0.388,1.403,0.438,2.856,1.841,3.243
		c1.404,0.388,2.857-0.438,3.244-1.842c0.178-0.647-0.022-1.994-0.295-3.26h2.415c5.183,0,9.563-4.098,9.563-8.949
		C48.724,28.554,48.483,27.481,48.063,26.487L48.063,26.487z"/>
	<path fill="#888888" d="M13.208,50.962c-0.387,1.404,0.438,2.857,1.841,3.244c1.404,0.387,2.856-0.438,3.243-1.842
		c0.388-1.404-1.009-6.104-1.05-6.113C17.201,46.239,13.594,49.558,13.208,50.962z"/>
	<path fill="#888888" d="M23.812,50.885c-0.388,1.404,0.438,2.855,1.841,3.244c1.404,0.388,2.855-0.438,3.243-1.842
		c0.387-1.404-1.009-6.104-1.05-6.115C27.806,46.161,24.199,49.481,23.812,50.885z"/>
</g>
</svg>
