<?xml version="1.0" encoding="utf-8"?>
<!-- Generator: Adobe Illustrator 16.0.0, SVG Export Plug-In . SVG Version: 6.00 Build 0)  -->
<!DOCTYPE svg PUBLIC "-//W3C//DTD SVG 1.1//EN" "http://www.w3.org/Graphics/SVG/1.1/DTD/svg11.dtd">
<svg version="1.1" id="Layer_1" xmlns="http://www.w3.org/2000/svg" xmlns:xlink="http://www.w3.org/1999/xlink" x="0px" y="0px"
	 width="56.693px" height="56.693px" viewBox="0 0 56.693 56.693" enable-background="new 0 0 56.693 56.693" xml:space="preserve">
<g>
	<path fill="#888888" d="M43.232,15.301c-0.312,0-0.618,0.013-0.926,0.035c-1.396-4.179-5.341-7.126-9.9-7.126
		c-0.414,0-1.119,0.032-1.807,0.11c-2.577-2.137-5.382-3.178-8.543-3.178c-6.875,0-12.472,4.901-13.667,11.801
		c-2.973,1.897-4.906,5.053-4.906,8.135c0,5.394,4.477,9.779,9.979,9.779h0.844c-1.032,1.059-2.22,2.41-2.434,3.182
		c-0.387,1.404,0.438,2.857,1.841,3.244c1.404,0.387,2.856-0.438,3.243-1.842c0.244-0.887-0.221-3.08-0.607-4.584h8.484
		c-1.014,1.047-2.148,2.352-2.356,3.104c-0.388,1.404,0.438,2.855,1.842,3.244c1.404,0.387,2.854-0.438,3.242-1.842
		c0.239-0.871-0.205-3.008-0.588-4.508h16.26c5.67,0,10.461-4.479,10.461-9.779C53.693,19.78,48.902,15.301,43.232,15.301z"/>
	<path fill="#888888" d="M44.037,40.776c-0.414-0.717-1.33-0.963-2.049-0.549l-1.754,1.012v-2.023c0-0.827-0.671-1.5-1.5-1.5
		c-0.828,0-1.5,0.673-1.5,1.5v2.025l-1.753-1.014c-0.718-0.414-1.635-0.166-2.049,0.549c-0.415,0.719-0.169,1.635,0.549,2.049
		l1.753,1.014l-1.753,1.013c-0.718,0.414-0.964,1.33-0.549,2.049c0.277,0.479,0.781,0.75,1.3,0.75c0.255,0,0.513-0.064,0.749-0.201
		l1.753-1.014v2.024c0,0.828,0.672,1.5,1.5,1.5c0.829,0,1.5-0.672,1.5-1.5v-2.022l1.754,1.012c0.236,0.137,0.494,0.201,0.748,0.201
		c0.519,0,1.022-0.271,1.301-0.75c0.414-0.717,0.168-1.635-0.549-2.049l-1.754-1.013l1.754-1.014
		C44.205,42.411,44.451,41.493,44.037,40.776z"/>
	<path fill="#888888" d="M15.332,49.374c-0.387,1.404,0.438,2.855,1.841,3.242c1.404,0.387,2.856-0.438,3.243-1.842
		c0.388-1.404-1.009-6.103-1.05-6.113C19.325,44.649,15.718,47.969,15.332,49.374z"/>
</g>
</svg>
