<?xml version="1.0" encoding="utf-8"?>
<!-- Generator: Adobe Illustrator 16.0.0, SVG Export Plug-In . SVG Version: 6.00 Build 0)  -->
<!DOCTYPE svg PUBLIC "-//W3C//DTD SVG 1.1//EN" "http://www.w3.org/Graphics/SVG/1.1/DTD/svg11.dtd">
<svg version="1.1" id="Layer_1" xmlns="http://www.w3.org/2000/svg" xmlns:xlink="http://www.w3.org/1999/xlink" x="0px" y="0px"
	 width="56.693px" height="56.693px" viewBox="0 0 56.693 56.693" enable-background="new 0 0 56.693 56.693" xml:space="preserve">
<g>
	<path fill="#888888" d="M42.843,14.025c-0.307,0-0.61,0.012-0.916,0.036c-1.385-4.145-5.294-7.065-9.815-7.065
		c-0.41,0-1.109,0.032-1.791,0.109c-2.555-2.118-5.335-3.15-8.47-3.15c-6.815,0-12.364,4.859-13.551,11.701
		c-2.945,1.881-4.863,5.008-4.863,8.065c0,5.346,4.438,9.694,9.894,9.694h10.78l-0.99,0.57c-0.654,0.379-0.879,1.215-0.501,1.869
		c0.254,0.438,0.713,0.686,1.188,0.686c0.232,0,0.468-0.061,0.684-0.186l1.599-0.922v1.848c0,0.756,0.613,1.367,1.369,1.367
		c0.755,0,1.369-0.611,1.369-1.367v-1.848l1.599,0.924c0.217,0.125,0.45,0.184,0.685,0.184c0.474,0,0.934-0.246,1.187-0.686
		c0.378-0.654,0.153-1.49-0.501-1.869l-0.99-0.57h12.039c5.622,0,10.372-4.438,10.372-9.694
		C53.217,18.465,48.466,14.025,42.843,14.025z"/>
	<path fill="#888888" d="M43.76,37.307c-0.376-0.654-1.214-0.88-1.868-0.5l-1.602,0.922v-1.847c0-0.756-0.61-1.368-1.367-1.368
		c-0.756,0-1.368,0.612-1.368,1.368v1.849l-1.601-0.924c-0.654-0.377-1.492-0.154-1.869,0.5c-0.379,0.655-0.153,1.491,0.5,1.87
		l1.601,0.923l-1.601,0.924c-0.653,0.377-0.879,1.215-0.5,1.869c0.254,0.438,0.713,0.686,1.187,0.686
		c0.231,0,0.468-0.061,0.684-0.184l1.601-0.924v1.848c0,0.756,0.612,1.367,1.368,1.367c0.757,0,1.367-0.611,1.367-1.367v-1.848
		l1.602,0.924c0.216,0.123,0.449,0.184,0.683,0.184c0.473,0,0.934-0.246,1.188-0.686c0.378-0.654,0.152-1.49-0.501-1.869
		L41.661,40.1l1.601-0.925C43.913,38.799,44.138,37.961,43.76,37.307z"/>
	<path fill="#888888" d="M32.296,45.312c-0.377-0.654-1.213-0.879-1.87-0.5l-1.599,0.924v-1.848c0-0.757-0.613-1.369-1.369-1.369
		s-1.369,0.612-1.369,1.369v1.848l-1.599-0.924c-0.656-0.379-1.493-0.152-1.871,0.502c-0.378,0.653-0.153,1.49,0.501,1.869
		l1.601,0.922l-1.601,0.924c-0.654,0.379-0.879,1.215-0.501,1.871c0.254,0.438,0.713,0.684,1.188,0.684
		c0.232,0,0.468-0.059,0.684-0.184l1.599-0.924v1.848c0,0.756,0.613,1.369,1.369,1.369c0.755,0,1.369-0.613,1.369-1.369v-1.848
		l1.599,0.924c0.217,0.125,0.45,0.184,0.685,0.184c0.474,0,0.934-0.246,1.187-0.684c0.378-0.656,0.153-1.492-0.501-1.871
		l-1.601-0.924l1.601-0.922C32.449,46.805,32.674,45.969,32.296,45.312z"/>
	<path fill="#888888" d="M20.552,37.307c-0.377-0.654-1.213-0.88-1.868-0.5l-1.601,0.922v-1.847c0-0.756-0.611-1.368-1.369-1.368
		c-0.757,0-1.367,0.612-1.367,1.368v1.849l-1.602-0.924c-0.655-0.377-1.491-0.154-1.87,0.5c-0.377,0.655-0.152,1.491,0.501,1.87
		l1.601,0.923l-1.601,0.924c-0.653,0.377-0.878,1.215-0.501,1.869c0.254,0.438,0.714,0.686,1.188,0.686
		c0.231,0,0.467-0.061,0.683-0.184l1.602-0.924v1.848c0,0.756,0.611,1.367,1.367,1.367c0.757,0,1.369-0.611,1.369-1.367v-1.848
		l1.601,0.924c0.215,0.123,0.45,0.184,0.683,0.184c0.473,0,0.934-0.246,1.188-0.686c0.378-0.654,0.153-1.49-0.501-1.869L18.452,40.1
		l1.601-0.925C20.706,38.799,20.93,37.961,20.552,37.307z"/>
</g>
</svg>
