<?xml version="1.0" encoding="utf-8"?>
<!-- Generator: Adobe Illustrator 16.0.0, SVG Export Plug-In . SVG Version: 6.00 Build 0)  -->
<!DOCTYPE svg PUBLIC "-//W3C//DTD SVG 1.1//EN" "http://www.w3.org/Graphics/SVG/1.1/DTD/svg11.dtd">
<svg version="1.1" id="Layer_1" xmlns="http://www.w3.org/2000/svg" xmlns:xlink="http://www.w3.org/1999/xlink" x="0px" y="0px"
	 width="56.693px" height="56.693px" viewBox="0 0 56.693 56.693" enable-background="new 0 0 56.693 56.693" xml:space="preserve">
<g>
	<path fill="#888888" d="M42.389,13.562c-0.306,0-0.609,0.012-0.912,0.036c-1.373-4.117-5.258-7.021-9.752-7.021
		c-0.408,0-1.103,0.031-1.779,0.108c-2.539-2.104-5.301-3.13-8.416-3.13c-6.771,0-12.283,4.827-13.462,11.625
		c-2.928,1.869-4.833,4.977-4.833,8.012c0,5.311,4.41,9.633,9.83,9.633h5.939l2.989-9.443c0.662-2.088,2.578-3.489,4.768-3.489
		h3.383c1.735,0,3.375,0.922,4.271,2.399c0.902,1.482,0.965,3.359,0.166,4.9l-2.651,5.113l0.813-0.3
		c0.551-0.2,1.129-0.303,1.717-0.303c1.162,0,2.267,0.402,3.15,1.121h4.777c5.586,0,10.305-4.412,10.305-9.633
		S47.975,13.562,42.389,13.562z"/>
	<path fill="#888888" d="M33.775,34.827l-2,0.732c-0.01,0.004-0.021,0.008-0.029,0.01l-6.09,2.315l6.264-12.071
		c0.32-0.619,0.297-1.363-0.065-1.959c-0.363-0.599-1.013-0.961-1.709-0.961h-3.383c-0.873,0-1.646,0.563-1.908,1.396l-5.289,16.709
		c-0.021,0.06-0.036,0.119-0.05,0.18c-0.09,0.394-0.056,0.791,0.08,1.146c0.053,0.141,0.12,0.275,0.204,0.402
		c0.229,0.342,0.563,0.614,0.974,0.768h0.001c0,0,0,0,0.001,0c0.047,0.019,0.095,0.033,0.144,0.047
		c0.436,0.125,0.88,0.094,1.274-0.059l6.167-2.347L22.997,51.79c-0.483,0.959-0.123,2.129,0.816,2.648
		c0.307,0.17,0.639,0.252,0.967,0.252c0.678,0,1.338-0.347,1.713-0.965l9.682-15.986c0.439-0.728,0.373-1.65-0.168-2.307
		C35.467,34.778,34.57,34.536,33.775,34.827z"/>
</g>
</svg>
