<?xml version="1.0" encoding="utf-8"?>
<!-- Generator: Adobe Illustrator 16.0.0, SVG Export Plug-In . SVG Version: 6.00 Build 0)  -->
<!DOCTYPE svg PUBLIC "-//W3C//DTD SVG 1.1//EN" "http://www.w3.org/Graphics/SVG/1.1/DTD/svg11.dtd">
<svg version="1.1" id="Layer_1" xmlns="http://www.w3.org/2000/svg" xmlns:xlink="http://www.w3.org/1999/xlink" x="0px" y="0px"
	 width="56.693px" height="56.693px" viewBox="0 0 56.693 56.693" enable-background="new 0 0 56.693 56.693" xml:space="preserve">
<g>
	<path fill="#888888" d="M44.687,29.594h-23.13c0,0-1.456,9.248,9.705,13.367c7.188,2.65-3.714,4.345-2.23,8.545
		c1.445,4.093,1.81,1.834,1.81,1.834s-1.348-2.496,5.099-3.743c6.535-1.265,8.354-4.345,6.518-8.402
		c-1.838-4.057-1.389-5.967,1.062-8.307C45.969,30.548,44.687,29.594,44.687,29.594z"/>
	<path fill="#888888" d="M44.253,11.116c-0.215,0-0.43,0.006-0.645,0.019C42.282,8.105,38.972,6,35.175,6
		c-0.344,0-0.926,0.022-1.495,0.078c-2.179-1.541-4.538-2.291-7.186-2.291c-5.786,0-10.527,3.568-11.687,8.633
		c-2.542,1.465-4.188,3.888-4.188,6.286c0,4.187,3.887,7.59,8.665,7.59h24.968c4.918,0,9.07-3.475,9.07-7.59
		C53.323,14.592,49.171,11.116,44.253,11.116z"/>
	<path fill="#888888" d="M16.65,34.976c-0.422-0.748-1.213-1.207-2.072-1.207c-0.856,0-1.647,0.459-2.072,1.207L3.812,50.29
		c-0.418,0.738-0.414,1.644,0.014,2.377c0.426,0.732,1.211,1.185,2.062,1.185h17.385c0.848,0,1.633-0.451,2.059-1.185
		c0.428-0.733,0.433-1.639,0.015-2.377L16.65,34.976z M15.765,51.036c-0.291,0.26-0.638,0.391-1.027,0.391
		c-0.396,0-0.744-0.129-1.039-0.385c-0.301-0.262-0.453-0.629-0.453-1.09c0-0.404,0.146-0.754,0.428-1.039
		c0.285-0.283,0.638-0.428,1.048-0.428c0.409,0,0.766,0.145,1.057,0.426c0.289,0.285,0.438,0.637,0.438,1.041
		C16.214,50.407,16.064,50.771,15.765,51.036z M16.152,41.175l-0.379,4.336c-0.043,0.541-0.133,0.947-0.279,1.244
		c-0.16,0.328-0.438,0.5-0.809,0.5c-0.375,0-0.652-0.17-0.802-0.489c-0.131-0.285-0.223-0.701-0.276-1.271l-0.283-4.221
		c-0.053-0.834-0.078-1.416-0.078-1.779c0-0.525,0.144-0.943,0.426-1.246c0.283-0.303,0.66-0.457,1.119-0.457
		c0.566,0,0.955,0.205,1.152,0.609c0.182,0.375,0.271,0.891,0.271,1.58C16.214,40.37,16.193,40.771,16.152,41.175z"/>
</g>
</svg>
