<?xml version="1.0" encoding="utf-8"?>
<!-- Generator: Adobe Illustrator 16.0.0, SVG Export Plug-In . SVG Version: 6.00 Build 0)  -->
<!DOCTYPE svg PUBLIC "-//W3C//DTD SVG 1.1//EN" "http://www.w3.org/Graphics/SVG/1.1/DTD/svg11.dtd">
<svg version="1.1" id="Layer_1" xmlns="http://www.w3.org/2000/svg" xmlns:xlink="http://www.w3.org/1999/xlink" x="0px" y="0px"
	 width="56.693px" height="56.693px" viewBox="0 0 56.693 56.693" enable-background="new 0 0 56.693 56.693" xml:space="preserve">
<path fill="#888888" d="M48.771,43.583L31.384,12.156c-0.032-0.128-0.114-0.235-0.229-0.303c-0.234-0.22-0.562-0.307-0.885-0.236
	L9.965,6.905V6.003c0-0.828-0.672-1.5-1.5-1.5c-0.827,0-1.5,0.672-1.5,1.5V51.84c0,0.828,0.673,1.5,1.5,1.5
	c0.828,0,1.5-0.672,1.5-1.5V14.207l1.726,10.921c-0.059,0.314,0.026,0.646,0.266,0.888L37.55,51.657
	c0.189,0.189,0.445,0.293,0.709,0.293c0.058,0,0.115-0.006,0.173-0.016c7.483-1.316,10.26-7.201,10.375-7.451
	C48.937,44.194,48.925,43.86,48.771,43.583z M9.988,7.936l18.515,4.297c-8.816,3.365-14.216,9.385-16,11.631L9.988,7.936z
	 M13.987,25.218c1.622-2.036,7.138-8.276,16.02-11.419l3.246,5.869L18.772,30.01L13.987,25.218z M24.351,35.603L37.05,26.53
	l3.515,6.348l-11.051,7.896L24.351,35.603z M38.591,49.866l-3.498-3.504l9.269-6.621l2.397,4.336
	C46.048,45.308,43.64,48.786,38.591,49.866z"/>
</svg>
