<?xml version="1.0" encoding="utf-8"?>
<!-- Generator: Adobe Illustrator 16.0.4, SVG Export Plug-In . SVG Version: 6.00 Build 0)  -->
<!DOCTYPE svg PUBLIC "-//W3C//DTD SVG 1.1//EN" "http://www.w3.org/Graphics/SVG/1.1/DTD/svg11.dtd">
<svg version="1.1" id="Layer_1" xmlns="http://www.w3.org/2000/svg" xmlns:xlink="http://www.w3.org/1999/xlink" x="0px" y="0px"
	 width="56.693px" height="56.693px" viewBox="0 0 56.693 56.693" enable-background="new 0 0 56.693 56.693" xml:space="preserve">
<g>
	<g>
		<linearGradient id="SVGID_1_" gradientUnits="userSpaceOnUse" x1="6.6084" y1="30.7754" x2="50.0752" y2="30.7754">
			<stop  offset="0" style="stop-color:#EF7D00"/>
			<stop  offset="1" style="stop-color:#FCBC00"/>
		</linearGradient>
		<path fill-rule="evenodd" clip-rule="evenodd" fill="url(#SVGID_1_)" d="M50.075,40.296c-4.111,7.125-9.578,11.934-18.117,12.52
			C19.299,53.683,7.342,44.626,6.646,31.39c-0.593-11.28,5.9-18.988,13.689-22.711c0.159,0.006,0.318,0.012,0.478,0.017
			C11.755,27.135,29.419,48.106,50.075,40.296z"/>
		<path fill="#EF7D00" d="M30.282,54.372c-13.418,0-24.458-10.061-25.134-22.904C4.596,20.967,10.032,11.941,19.689,7.325
			c0.219-0.104,0.468-0.154,0.701-0.146l0.469,0.016c0.51,0.016,0.977,0.289,1.239,0.726c0.263,0.437,0.286,0.977,0.062,1.435
			c-3.379,6.878-3.016,14.517,0.996,20.958c3.962,6.36,10.708,10.158,18.05,10.159h0.002c2.758,0,5.562-0.532,8.338-1.581
			c0.592-0.224,1.264-0.052,1.672,0.431c0.412,0.484,0.475,1.173,0.156,1.722c-4.895,8.483-11.031,12.699-19.314,13.267
			C31.466,54.353,30.872,54.372,30.282,54.372z M18.004,11.709c-6.649,4.377-10.287,11.491-9.86,19.601
			C8.736,42.56,18.459,51.372,30.282,51.372c0.521,0,1.047-0.018,1.572-0.054c6.039-0.413,10.797-3.115,14.742-8.43
			c-1.799,0.389-3.6,0.585-5.389,0.585c0,0-0.002,0-0.004,0C32.821,43.472,25.123,39.146,20.61,31.9
			C16.806,25.793,15.91,18.481,18.004,11.709z"/>
	</g>
	<path fill="#FCBC00" d="M30.163,20.077c0.072-0.207,0.277-0.349,0.508-0.354l6.049-0.113l1.986-5.282
		c0.076-0.205,0.283-0.34,0.514-0.34c0.232,0,0.439,0.135,0.516,0.34l1.984,5.282l6.049,0.113c0.234,0.006,0.438,0.147,0.508,0.354
		c0.072,0.207-0.006,0.434-0.191,0.564l-4.816,3.377l1.75,5.35c0.068,0.208-0.012,0.432-0.197,0.559
		c-0.189,0.129-0.443,0.131-0.633,0.01l-4.969-3.199l-4.969,3.199c-0.092,0.061-0.201,0.09-0.309,0.09
		c-0.113,0-0.227-0.033-0.322-0.1c-0.188-0.127-0.268-0.352-0.199-0.559l1.752-5.35l-4.818-3.377
		C30.171,20.51,30.091,20.284,30.163,20.077z"/>
	<path fill="#FCBC00" d="M41.802,7.11c0.027-0.084,0.104-0.141,0.193-0.145l2.277-0.045l0.75-2.129
		c0.029-0.084,0.107-0.139,0.193-0.139s0.164,0.055,0.193,0.139l0.748,2.129l2.281,0.045c0.088,0.004,0.162,0.061,0.191,0.145
		c0.027,0.083-0.002,0.174-0.072,0.227l-1.816,1.361l0.66,2.157c0.025,0.085-0.004,0.175-0.074,0.227
		c-0.072,0.051-0.168,0.054-0.238,0.004l-1.873-1.29l-1.873,1.29c-0.035,0.024-0.076,0.035-0.117,0.035s-0.084-0.012-0.121-0.039
		c-0.068-0.052-0.1-0.142-0.074-0.227l0.66-2.157l-1.814-1.361C41.804,7.284,41.774,7.193,41.802,7.11z"/>
</g>
</svg>
