<?xml version="1.0" encoding="utf-8"?>
<!-- Generator: Adobe Illustrator 16.0.4, SVG Export Plug-In . SVG Version: 6.00 Build 0)  -->
<!DOCTYPE svg PUBLIC "-//W3C//DTD SVG 1.1//EN" "http://www.w3.org/Graphics/SVG/1.1/DTD/svg11.dtd">
<svg version="1.1" id="Layer_1" xmlns="http://www.w3.org/2000/svg" xmlns:xlink="http://www.w3.org/1999/xlink" x="0px" y="0px"
	 width="56.693px" height="56.693px" viewBox="0 0 56.693 56.693" enable-background="new 0 0 56.693 56.693" xml:space="preserve">
<g>
	<path fill="#FCBC00" d="M28.119,37.896c-5.164,0-9.365-4.201-9.365-9.364s4.201-9.364,9.365-9.364c5.164,0,9.363,4.201,9.363,9.364
		S33.282,37.896,28.119,37.896z M28.119,23.168c-2.958,0-5.365,2.406-5.365,5.364s2.407,5.364,5.365,5.364
		c2.957,0,5.363-2.406,5.363-5.364S31.075,23.168,28.119,23.168z"/>
	<path fill="#FCBC00" d="M51.251,30.576h-9.09c-1.105,0-2-0.896-2-2c0-1.105,0.895-2,2-2h9.09c1.105,0,2,0.895,2,2
		C53.251,29.68,52.356,30.576,51.251,30.576z"/>
	<path fill="#FCBC00" d="M14.106,30.576h-9.09c-1.104,0-2-0.896-2-2c0-1.105,0.896-2,2-2h9.09c1.104,0,2,0.895,2,2
		C16.106,29.68,15.21,30.576,14.106,30.576z"/>
	<path fill="#FCBC00" d="M28.132,16.549c-1.104,0-2-0.896-2-2V5.458c0-1.104,0.896-2,2-2c1.105,0,2,0.896,2,2v9.091
		C30.132,15.653,29.237,16.549,28.132,16.549z"/>
	<path fill="#FCBC00" d="M28.132,53.693c-1.104,0-2-0.896-2-2v-9.092c0-1.104,0.896-2,2-2c1.105,0,2,0.896,2,2v9.092
		C30.132,52.797,29.237,53.693,28.132,53.693z"/>
	<path fill="#FCBC00" d="M38.349,20.361c-0.512,0-1.023-0.195-1.414-0.586c-0.781-0.781-0.781-2.048,0-2.828l6.428-6.428
		c0.781-0.781,2.047-0.781,2.828,0c0.781,0.781,0.781,2.047,0,2.828l-6.428,6.428C39.372,20.166,38.86,20.361,38.349,20.361z"/>
	<path fill="#FCBC00" d="M11.492,47.217c-0.512,0-1.023-0.195-1.414-0.586c-0.781-0.78-0.781-2.047,0-2.828l6.428-6.427
		c0.781-0.781,2.047-0.781,2.828,0c0.781,0.78,0.781,2.048,0,2.828l-6.428,6.427C12.515,47.021,12.003,47.217,11.492,47.217z"/>
	<path fill="#FCBC00" d="M44.776,47.217c-0.512,0-1.023-0.195-1.414-0.586l-6.428-6.427c-0.781-0.78-0.781-2.048,0-2.828
		c0.781-0.781,2.047-0.781,2.828,0l6.428,6.427c0.781,0.781,0.781,2.048,0,2.828C45.8,47.021,45.288,47.217,44.776,47.217z"/>
	<path fill="#FCBC00" d="M17.919,20.361c-0.512,0-1.023-0.195-1.414-0.586l-6.428-6.428c-0.781-0.781-0.781-2.047,0-2.828
		c0.781-0.781,2.047-0.781,2.828,0l6.428,6.428c0.781,0.78,0.781,2.047,0,2.828C18.943,20.166,18.431,20.361,17.919,20.361z"/>
</g>
</svg>
