<?xml version="1.0" encoding="utf-8"?>
<!-- Generator: Adobe Illustrator 16.0.4, SVG Export Plug-In . SVG Version: 6.00 Build 0)  -->
<!DOCTYPE svg PUBLIC "-//W3C//DTD SVG 1.1//EN" "http://www.w3.org/Graphics/SVG/1.1/DTD/svg11.dtd">
<svg version="1.1" id="Layer_1" xmlns="http://www.w3.org/2000/svg" xmlns:xlink="http://www.w3.org/1999/xlink" x="0px" y="0px"
	 width="56.693px" height="56.693px" viewBox="0 0 56.693 56.693" enable-background="new 0 0 56.693 56.693" xml:space="preserve">
<g>
	<path fill="#AACFE6" d="M43.052,43.264H13.468c-5.458,0-9.899-4.351-9.899-9.7c0-3.06,1.922-6.191,4.874-8.072
		C9.628,18.64,15.184,13.77,22.009,13.77c3.141,0,5.925,1.035,8.483,3.159c0.685-0.078,1.389-0.111,1.802-0.111
		c4.529,0,8.446,2.93,9.826,7.084c0.31-0.025,0.62-0.037,0.932-0.037c5.625,0,10.379,4.441,10.379,9.699
		S48.677,43.264,43.052,43.264z"/>
	<path fill="#FFFFFF" d="M22.009,17.77c-5.078,0-9.171,3.859-9.732,9.177l-0.113,1.078l-0.965,0.493
		c-2.137,1.093-3.63,3.168-3.63,5.046c0,2.742,2.255,5.7,5.899,5.7h29.583c3.398,0,6.379-2.663,6.379-5.7
		c0-3.036-2.98-5.699-6.379-5.699c-0.662,0-1.318,0.084-1.949,0.252l-2.227,0.588l-0.271-2.285c-0.38-3.193-3.093-5.602-6.311-5.602
		c-0.615,0-1.564,0.088-1.953,0.18L29.3,21.243l-0.783-0.727C26.474,18.616,24.466,17.77,22.009,17.77z"/>
</g>
</svg>
