<?xml version="1.0" encoding="utf-8"?>
<!-- Generator: Adobe Illustrator 16.0.0, SVG Export Plug-In . SVG Version: 6.00 Build 0)  -->
<!DOCTYPE svg PUBLIC "-//W3C//DTD SVG 1.1//EN" "http://www.w3.org/Graphics/SVG/1.1/DTD/svg11.dtd">
<svg version="1.1" id="Layer_1" xmlns="http://www.w3.org/2000/svg" xmlns:xlink="http://www.w3.org/1999/xlink" x="0px" y="0px"
	 width="39.801px" height="39.729px" viewBox="0 0 39.801 39.729" enable-background="new 0 0 39.801 39.729" xml:space="preserve">
<path fill="#FFFFFF" d="M28.381,5.007c0.12-0.506-0.07-1.034-0.488-1.346c-0.416-0.313-0.979-0.346-1.429-0.088l-6.516,2.413
	l-6.62-2.418c-0.199-0.111-0.421-0.167-0.641-0.167c-0.278,0-0.554,0.089-0.785,0.264c-0.414,0.313-0.604,0.841-0.485,1.348
	l7.267,30.313c0.14,0.587,0.666,1,1.27,1h0.001c0.605,0,1.131-0.416,1.271-1.006L28.381,5.007z M21.753,19.865
	c0,1.038-0.842,1.885-1.884,1.885c-1.039,0-1.884-0.845-1.884-1.887c0-1.041,0.844-1.886,1.884-1.886
	C20.911,17.98,21.753,18.821,21.753,19.865z"/>
</svg>
