<?xml version="1.0" encoding="utf-8"?>
<!-- Generator: Adobe Illustrator 16.0.4, SVG Export Plug-In . SVG Version: 6.00 Build 0)  -->
<!DOCTYPE svg PUBLIC "-//W3C//DTD SVG 1.1//EN" "http://www.w3.org/Graphics/SVG/1.1/DTD/svg11.dtd">
<svg version="1.1" id="Layer_1" xmlns="http://www.w3.org/2000/svg" xmlns:xlink="http://www.w3.org/1999/xlink" x="0px" y="0px"
	 width="56.693px" height="56.693px" viewBox="0 0 56.693 56.693" enable-background="new 0 0 56.693 56.693" xml:space="preserve">
<g>
	<path fill="#AACFE6" d="M43.033,13.983c-0.308,0-0.616,0.012-0.922,0.036C40.72,9.85,36.786,6.91,32.234,6.91
		c-0.413,0-1.117,0.032-1.804,0.11c-2.57-2.132-5.367-3.171-8.522-3.171c-6.858,0-12.441,4.891-13.634,11.774
		c-2.965,1.893-4.895,5.041-4.895,8.115c0,5.379,4.466,9.755,9.956,9.755h29.698c5.657,0,10.437-4.467,10.437-9.755
		C53.47,18.451,48.69,13.983,43.033,13.983z"/>
	<path fill="#1D71B8" d="M36.573,44.14c-4.616,0-8.199-1.374-8.457-1.476c-9.91-4.433-17.317-0.31-17.628-0.132
		c-0.948,0.544-2.175,0.238-2.736-0.686c-0.562-0.924-0.256-2.114,0.688-2.666c0.38-0.223,9.45-5.387,21.258-0.1l0,0
		c0.007,0,9.088,3.434,15.822-1.633c0.873-0.658,2.13-0.499,2.805,0.354c0.674,0.854,0.512,2.08-0.363,2.737
		C44.245,43.335,40.106,44.14,36.573,44.14z"/>
	<path fill="#1D71B8" d="M36.573,53.421c-4.616,0-8.199-1.375-8.457-1.477c-9.91-4.434-17.317-0.309-17.628-0.131
		c-0.948,0.543-2.175,0.239-2.736-0.686c-0.562-0.924-0.256-2.115,0.688-2.666c0.38-0.223,9.45-5.387,21.258-0.1l0,0
		c0.007,0,9.088,3.433,15.822-1.633c0.873-0.658,2.13-0.5,2.805,0.354c0.674,0.854,0.512,2.079-0.363,2.736
		C44.245,52.616,40.106,53.421,36.573,53.421z"/>
</g>
</svg>
