<?xml version="1.0" encoding="utf-8"?>
<!-- Generator: Adobe Illustrator 16.0.4, SVG Export Plug-In . SVG Version: 6.00 Build 0)  -->
<!DOCTYPE svg PUBLIC "-//W3C//DTD SVG 1.1//EN" "http://www.w3.org/Graphics/SVG/1.1/DTD/svg11.dtd">
<svg version="1.1" id="Layer_1" xmlns="http://www.w3.org/2000/svg" xmlns:xlink="http://www.w3.org/1999/xlink" x="0px" y="0px"
	 width="56.693px" height="56.693px" viewBox="0 0 56.693 56.693" enable-background="new 0 0 56.693 56.693" xml:space="preserve">
<g>
	<g>
		<path d="M18.085,40.025c0.094-0.094,0.146-0.221,0.146-0.354s-0.053-0.26-0.146-0.354l-0.705-0.705v-0.996
			c0-0.275-0.224-0.5-0.5-0.5h-0.996l-0.703-0.703c-0.195-0.195-0.512-0.195-0.707,0l-0.703,0.703h-0.997
			c-0.276,0-0.5,0.225-0.5,0.5v0.997l-0.704,0.704c-0.094,0.094-0.146,0.221-0.146,0.354s0.053,0.26,0.146,0.354l0.704,0.704v0.995
			c0,0.276,0.224,0.5,0.5,0.5h0.995l0.705,0.705c0.098,0.098,0.226,0.146,0.354,0.146s0.256-0.049,0.354-0.146l0.705-0.705h0.994
			c0.276,0,0.5-0.224,0.5-0.5V40.73L18.085,40.025z"/>
		<path d="M31.528,40.025c0.094-0.094,0.146-0.221,0.146-0.354s-0.053-0.26-0.146-0.354l-0.705-0.704v-0.997
			c0-0.275-0.223-0.5-0.5-0.5h-0.996l-0.704-0.703c-0.188-0.188-0.52-0.188-0.707,0l-0.703,0.703h-0.997c-0.276,0-0.5,0.225-0.5,0.5
			v0.998l-0.703,0.703c-0.195,0.195-0.195,0.512,0,0.707l0.703,0.703v0.996c0,0.276,0.224,0.5,0.5,0.5h0.996l0.704,0.705
			c0.094,0.094,0.221,0.146,0.354,0.146s0.26-0.053,0.354-0.146l0.705-0.705h0.995c0.277,0,0.5-0.224,0.5-0.5v-0.995L31.528,40.025z
			"/>
		<path d="M23.937,49.232v-0.996c0-0.277-0.224-0.5-0.5-0.5h-0.996l-0.703-0.704c-0.094-0.094-0.221-0.146-0.354-0.146
			s-0.26,0.053-0.354,0.146l-0.703,0.704H19.33c-0.276,0-0.5,0.223-0.5,0.5v0.997l-0.703,0.703
			c-0.094,0.094-0.146,0.221-0.146,0.354s0.053,0.26,0.146,0.354l0.703,0.703v0.996c0,0.276,0.224,0.5,0.5,0.5h0.996l0.705,0.704
			c0.094,0.094,0.221,0.146,0.354,0.146s0.26-0.053,0.354-0.146l0.704-0.704h0.995c0.276,0,0.5-0.224,0.5-0.5v-0.995l0.704-0.704
			c0.195-0.195,0.195-0.512,0-0.707L23.937,49.232z"/>
		<path d="M37.378,49.231v-0.995c0-0.277-0.223-0.5-0.5-0.5h-0.996l-0.703-0.704c-0.188-0.188-0.52-0.188-0.707,0l-0.703,0.704
			h-0.996c-0.275,0-0.5,0.223-0.5,0.5v0.996l-0.703,0.704c-0.195,0.195-0.195,0.512,0,0.707l0.703,0.704v0.995
			c0,0.276,0.225,0.5,0.5,0.5h0.996l0.703,0.704c0.094,0.094,0.221,0.146,0.354,0.146s0.26-0.053,0.354-0.146l0.705-0.704h0.994
			c0.277,0,0.5-0.224,0.5-0.5v-0.994l0.705-0.705c0.094-0.094,0.146-0.221,0.146-0.354s-0.053-0.26-0.146-0.354L37.378,49.231z"/>
		<path d="M45.874,39.672c0-0.133-0.053-0.26-0.146-0.354l-0.703-0.704v-0.997c0-0.275-0.225-0.5-0.5-0.5h-0.998l-0.703-0.703
			c-0.188-0.188-0.52-0.188-0.707,0l-0.703,0.703h-0.996c-0.275,0-0.5,0.225-0.5,0.5v0.996l-0.703,0.705
			c-0.195,0.195-0.195,0.512,0,0.707l0.703,0.704v0.995c0,0.276,0.225,0.5,0.5,0.5h0.996l0.703,0.705
			c0.094,0.094,0.221,0.146,0.354,0.146s0.26-0.053,0.354-0.146l0.705-0.705h0.996c0.275,0,0.5-0.224,0.5-0.5v-0.995l0.703-0.704
			C45.821,39.932,45.874,39.805,45.874,39.672z"/>
	</g>
	<g>
		<linearGradient id="SVGID_1_" gradientUnits="userSpaceOnUse" x1="28.2085" y1="30.6387" x2="28.2085" y2="5.3691">
			<stop  offset="0.2222" style="stop-color:#1D71B8"/>
			<stop  offset="1" style="stop-color:#7AC0E2"/>
		</linearGradient>
		<path fill="url(#SVGID_1_)" d="M42.632,15.374c-0.85,0-1.668,0.111-2.439,0.315c-0.49-4.111-3.982-7.299-8.225-7.299
			c-0.662,0-1.775,0.085-2.392,0.231c-2.171-2.018-4.604-3.253-7.801-3.253c-6.281,0-10.974,4.761-11.617,10.87
			c-2.576,1.318-4.678,3.971-4.678,6.768c0,3.953,3.242,7.633,7.829,7.633h29.323c4.586,0,8.305-3.68,8.305-7.633
			S47.218,15.374,42.632,15.374z"/>
		<path fill="#1D71B8" d="M42.632,32.639H13.309c-5.42,0-9.829-4.321-9.829-9.633c0-3.036,1.905-6.145,4.833-8.012
			C9.491,8.197,15.002,3.369,21.775,3.369c3.114,0,5.876,1.026,8.414,3.131c0.623-0.072,1.291-0.109,1.779-0.109
			c4.492,0,8.379,2.903,9.754,7.02c0.303-0.024,0.605-0.036,0.91-0.036c5.586,0,10.305,4.411,10.305,9.632
			C52.937,28.228,48.218,32.639,42.632,32.639z M21.775,7.369c-5.024,0-9.074,3.818-9.628,9.08l-0.114,1.077l-0.965,0.494
			C8.956,19.1,7.48,21.15,7.48,23.006c0,2.709,2.229,5.633,5.829,5.633h29.323c3.359,0,6.305-2.633,6.305-5.633
			s-2.945-5.632-6.305-5.632c-0.654,0-1.303,0.083-1.928,0.249l-2.225,0.587l-0.273-2.284c-0.375-3.156-3.057-5.536-6.238-5.536
			c-0.607,0-1.545,0.086-1.932,0.178l-1.04,0.246l-0.782-0.728C26.192,8.207,24.206,7.369,21.775,7.369z"/>
	</g>
	<g>
		<path fill="#C90C0F" d="M39.974,31.387L31.28,16.072c-0.422-0.748-1.213-1.208-2.072-1.208c-0.858,0-1.649,0.46-2.073,1.208
			l-8.692,15.314c-0.419,0.737-0.414,1.643,0.014,2.376c0.426,0.732,1.211,1.185,2.06,1.185h17.385c0.848,0,1.633-0.452,2.059-1.185
			C40.388,33.029,40.392,32.124,39.974,31.387z"/>
		<path fill="#FFFFFF" d="M30.396,32.133c-0.291,0.26-0.637,0.391-1.027,0.391c-0.395,0-0.744-0.13-1.039-0.385
			c-0.301-0.263-0.453-0.629-0.453-1.091c0-0.404,0.145-0.754,0.428-1.038c0.284-0.283,0.637-0.428,1.047-0.428
			c0.41,0,0.765,0.144,1.056,0.426c0.289,0.285,0.438,0.636,0.438,1.04C30.845,31.504,30.694,31.867,30.396,32.133z"/>
		<path fill="#FFFFFF" d="M30.782,22.271l-0.379,4.336c-0.043,0.541-0.133,0.947-0.279,1.244c-0.16,0.327-0.439,0.5-0.808,0.5
			c-0.375,0-0.652-0.17-0.801-0.49c-0.131-0.286-0.223-0.701-0.277-1.27l-0.283-4.221c-0.053-0.834-0.078-1.416-0.078-1.779
			c0-0.525,0.143-0.944,0.425-1.246c0.284-0.303,0.661-0.458,1.12-0.458c0.566,0,0.955,0.206,1.152,0.61
			c0.182,0.374,0.271,0.891,0.271,1.579C30.845,21.467,30.823,21.867,30.782,22.271z"/>
	</g>
</g>
</svg>
