<?xml version="1.0" encoding="utf-8"?>
<!-- Generator: Adobe Illustrator 16.0.4, SVG Export Plug-In . SVG Version: 6.00 Build 0)  -->
<!DOCTYPE svg PUBLIC "-//W3C//DTD SVG 1.1//EN" "http://www.w3.org/Graphics/SVG/1.1/DTD/svg11.dtd">
<svg version="1.1" id="Layer_1" xmlns="http://www.w3.org/2000/svg" xmlns:xlink="http://www.w3.org/1999/xlink" x="0px" y="0px"
	 width="56.693px" height="56.693px" viewBox="0 0 56.693 56.693" enable-background="new 0 0 56.693 56.693" xml:space="preserve">
<g>
	<path fill="none" d="M23.834,32.202c-0.336-0.379-0.644-0.781-0.946-1.186c-0.923-0.389-1.89-0.573-2.953-0.573
		c-4.414,0-7.973,3.359-8.46,7.987l-0.113,1.074l-0.961,0.49c-1.836,0.939-3.119,2.711-3.119,4.309c0,2.342,1.929,4.869,5.045,4.869
		h26.354c3.133,0,5.473-2.57,5.473-4.869c0-2.298-2.34-4.867-5.473-4.867c-0.572,0-1.139,0.072-1.686,0.217l-2.215,0.582
		l-0.27-2.271c-0.004-0.025-0.014-0.049-0.016-0.074C30.386,37.348,26.637,35.368,23.834,32.202z"/>
	<linearGradient id="SVGID_1_" gradientUnits="userSpaceOnUse" x1="20.6182" y1="22.0591" x2="52.132" y2="22.0591">
		<stop  offset="0" style="stop-color:#EF7D00"/>
		<stop  offset="1" style="stop-color:#FCBC00"/>
	</linearGradient>
	<path fill="url(#SVGID_1_)" d="M29.097,29.178c3.91,0,7.312,2.397,8.728,5.867c5.576-0.283,9.066-3.225,11.09-5.866
		c-1.352,0.324-2.729,0.486-4.121,0.486c-5.881,0-11.408-2.918-14.787-7.808c-2.589-3.747-3.575-8.249-2.881-12.784
		c-3.113,2.599-4.714,5.689-4.977,9.52c-0.205,2.996,0.46,5.979,1.837,8.583c1.248,0.465,2.435,1.159,3.57,2.09
		C28.14,29.204,28.728,29.178,29.097,29.178z"/>
	<path fill="#EF7D00" d="M53.612,26.385c-0.018-0.506-0.291-0.969-0.727-1.229c-0.432-0.261-0.971-0.284-1.424-0.06
		c-2.139,1.05-4.381,1.582-6.668,1.582c-4.9,0-9.51-2.438-12.33-6.52c-2.833-4.099-3.359-9.093-1.48-14.061
		c0.223-0.59,0.051-1.257-0.43-1.666c-0.482-0.409-1.167-0.47-1.713-0.156c-6.098,3.518-9.261,8.134-9.67,14.111
		c-0.19,2.774,0.259,5.538,1.235,8.092c0.563,0.021,1.118,0.072,1.658,0.169c-1.087-2.513-1.6-5.311-1.404-8.16
		c0.417-6.089,3.846-9.988,8.928-12.92C24.018,20.299,38.97,32.896,52.12,26.438c0.004,0.112,0.008,0.227,0.012,0.339
		c-1.971,4.123-5.51,7.732-10.492,9.148c0.697,0.223,1.357,0.523,1.975,0.887c4.232-1.661,7.727-4.917,9.865-9.391
		c0.102-0.217,0.152-0.455,0.145-0.695L53.612,26.385z"/>
	<path fill="#EF7D00" d="M22.149,18.593c0.263-3.831,1.863-6.921,4.977-9.52c-0.693,4.536,0.292,9.038,2.881,12.784
		c3.379,4.889,8.906,7.808,14.787,7.808c1.393,0,2.77-0.162,4.121-0.486c-2.023,2.642-5.514,5.583-11.09,5.866
		c0.059,0.144,0.119,0.284,0.172,0.431c0.227-0.014,0.455-0.021,0.684-0.021c1.029,0,2.023,0.17,2.959,0.471
		c4.982-1.416,8.521-5.025,10.492-9.148c-0.004-0.112-0.008-0.227-0.012-0.339c-13.15,6.458-28.102-6.139-22.533-20.867
		c-5.082,2.932-8.511,6.831-8.928,12.92c-0.195,2.849,0.317,5.647,1.404,8.16c0.657,0.119,1.298,0.293,1.922,0.526
		C22.609,24.571,21.944,21.588,22.149,18.593z"/>
	<path fill="#AACFE6" d="M43.614,36.812c-0.617-0.363-1.277-0.664-1.975-0.887c-0.936-0.301-1.93-0.471-2.959-0.471
		c-0.229,0-0.457,0.008-0.684,0.021c-0.053-0.146-0.113-0.287-0.172-0.431c-1.416-3.47-4.818-5.867-8.728-5.867
		c-0.369,0-0.957,0.026-1.541,0.089c-1.136-0.931-2.322-1.625-3.57-2.09c-0.624-0.233-1.265-0.407-1.922-0.526
		c-0.54-0.097-1.095-0.148-1.658-0.169c-0.157-0.006-0.312-0.02-0.471-0.02c-6.154,0-11.169,4.368-12.274,10.526
		c-2.644,1.719-4.36,4.548-4.36,7.316c0,4.881,4.05,8.85,9.026,8.85h26.354c5.125,0,9.455-4.053,9.455-8.85
		C48.136,41.187,46.302,38.392,43.614,36.812z"/>
	<path fill="#FFFFFF" d="M38.681,49.173H12.327c-3.116,0-5.045-2.527-5.045-4.869c0-1.598,1.283-3.369,3.119-4.309l0.961-0.49
		l0.113-1.074c0.487-4.628,4.046-7.987,8.46-7.987c1.063,0,2.03,0.185,2.953,0.573c0.928,0.391,1.811,0.99,2.703,1.818l0.78,0.725
		l0.9-0.215l0.136-0.031c0.331-0.08,1.152-0.154,1.689-0.154c0.237,0,0.465,0.035,0.695,0.064c1.039,0.134,1.99,0.553,2.766,1.192
		c0.621,0.512,1.119,1.157,1.465,1.897c0.229,0.491,0.398,1.016,0.473,1.576c0.002,0.025,0.012,0.049,0.016,0.074l0.27,2.271
		l2.215-0.582c0.547-0.145,1.113-0.217,1.686-0.217c3.133,0,5.473,2.569,5.473,4.867C44.153,46.603,41.813,49.173,38.681,49.173z"/>
</g>
</svg>
