<?xml version="1.0" encoding="utf-8"?>
<!-- Generator: Adobe Illustrator 16.0.4, SVG Export Plug-In . SVG Version: 6.00 Build 0)  -->
<!DOCTYPE svg PUBLIC "-//W3C//DTD SVG 1.1//EN" "http://www.w3.org/Graphics/SVG/1.1/DTD/svg11.dtd">
<svg version="1.1" id="Layer_1" xmlns="http://www.w3.org/2000/svg" xmlns:xlink="http://www.w3.org/1999/xlink" x="0px" y="0px"
	 width="56.693px" height="56.693px" viewBox="0 0 56.693 56.693" enable-background="new 0 0 56.693 56.693" xml:space="preserve">
<g>
	<path fill="#AACFE6" d="M38.099,53.147h-25.83c-4.906,0-8.896-3.912-8.896-8.723c0-2.723,1.684-5.506,4.279-7.201
		c1.095-6.048,6.026-10.335,12.075-10.335c2.769,0,5.227,0.9,7.484,2.747c0.569-0.061,1.137-0.086,1.496-0.086
		c3.999,0,7.464,2.543,8.757,6.172c0.211-0.014,0.424-0.02,0.635-0.02c5.05,0,9.316,3.994,9.316,8.723S43.148,53.147,38.099,53.147z
		"/>
	<path fill="#FFFFFF" d="M19.727,30.889c-4.302,0-7.769,3.274-8.245,7.785l-0.113,1.078l-0.965,0.493
		c-1.785,0.912-3.032,2.631-3.032,4.18c0,2.271,1.872,4.723,4.896,4.723h25.83c3.043,0,5.316-2.492,5.316-4.723
		c0-2.229-2.273-4.723-5.316-4.723c-0.555,0-1.105,0.071-1.637,0.211l-2.225,0.588l-0.271-2.285
		c-0.316-2.66-2.578-4.666-5.259-4.666c-0.522,0-1.323,0.073-1.647,0.15l-1.04,0.246l-0.783-0.728
		C23.502,31.607,21.803,30.889,19.727,30.889z"/>
	<path fill="#FCBC00" d="M34.481,29.261c-3.986,0-7.229-3.242-7.229-7.229s3.242-7.229,7.229-7.229s7.229,3.242,7.229,7.229
		S38.468,29.261,34.481,29.261z M34.481,18.804c-1.779,0-3.229,1.448-3.229,3.229s1.449,3.229,3.229,3.229
		c1.78,0,3.229-1.448,3.229-3.229S36.262,18.804,34.481,18.804z"/>
	<path fill="#FCBC00" d="M34.495,11.751c-1.104,0-2-0.896-2-2V5.448c0-1.104,0.896-2,2-2c1.105,0,2,0.896,2,2V9.75
		C36.495,10.855,35.601,11.751,34.495,11.751z"/>
	<path fill="#FCBC00" d="M51.314,24.269h-4.302c-1.105,0-2-0.896-2-2c0-1.105,0.895-2,2-2h4.302c1.104,0,2,0.895,2,2
		C53.314,23.372,52.419,24.269,51.314,24.269z"/>
	<path fill="#FCBC00" d="M21.978,24.269h-4.302c-1.104,0-2-0.896-2-2c0-1.105,0.896-2,2-2h4.302c1.104,0,2,0.895,2,2
		C23.978,23.372,23.082,24.269,21.978,24.269z"/>
	<path fill="#FCBC00" d="M43.347,15.417c-0.512,0-1.023-0.195-1.414-0.586c-0.781-0.781-0.781-2.048,0-2.828l3.042-3.042
		c0.78-0.781,2.048-0.781,2.828,0c0.781,0.781,0.781,2.047,0,2.828l-3.042,3.043C44.37,15.222,43.858,15.417,43.347,15.417z"/>
	<path fill="#FCBC00" d="M25.645,15.416c-0.512,0-1.023-0.195-1.414-0.585l-3.042-3.042c-0.781-0.781-0.781-2.047,0-2.829
		c0.781-0.781,2.047-0.781,2.829,0l3.042,3.041c0.781,0.781,0.781,2.048,0,2.829C26.669,15.221,26.157,15.416,25.645,15.416z"/>
	<path fill="#FCBC00" d="M46.389,36.161c-0.512,0-1.024-0.195-1.415-0.586l-3.041-3.043c-0.781-0.781-0.781-2.047,0-2.828
		s2.047-0.781,2.828,0l3.043,3.043c0.78,0.781,0.78,2.047-0.001,2.828C47.412,35.966,46.9,36.161,46.389,36.161z"/>
</g>
</svg>
