<?xml version="1.0" encoding="utf-8"?>
<!-- Generator: Adobe Illustrator 16.0.4, SVG Export Plug-In . SVG Version: 6.00 Build 0)  -->
<!DOCTYPE svg PUBLIC "-//W3C//DTD SVG 1.1//EN" "http://www.w3.org/Graphics/SVG/1.1/DTD/svg11.dtd">
<svg version="1.1" id="Layer_1" xmlns="http://www.w3.org/2000/svg" xmlns:xlink="http://www.w3.org/1999/xlink" x="0px" y="0px"
	 width="56.693px" height="56.693px" viewBox="0 0 56.693 56.693" enable-background="new 0 0 56.693 56.693" xml:space="preserve">
<g>
	<g>
		<linearGradient id="SVGID_1_" gradientUnits="userSpaceOnUse" x1="35.6875" y1="23.7373" x2="35.6875" y2="6.1616">
			<stop  offset="0.2222" style="stop-color:#1D71B8"/>
			<stop  offset="1" style="stop-color:#7AC0E2"/>
		</linearGradient>
		<path fill="url(#SVGID_1_)" d="M45.72,13.121c-0.591,0-1.16,0.077-1.697,0.219c-0.34-2.859-2.77-5.077-5.72-5.077
			c-0.46,0-1.235,0.059-1.665,0.161c-1.508-1.403-3.201-2.262-5.425-2.262c-4.368,0-7.632,3.312-8.08,7.561
			c-1.79,0.916-3.253,2.761-3.253,4.707c0,2.748,2.255,5.309,5.445,5.309H45.72c3.189,0,5.775-2.561,5.775-5.309
			C51.495,15.679,48.909,13.121,45.72,13.121z"/>
		<path fill="#1D71B8" d="M45.72,25.737H25.325c-4.105,0-7.445-3.279-7.445-7.309c0-2.236,1.339-4.514,3.418-5.938
			c0.963-4.884,4.988-8.33,9.915-8.33c2.233,0,4.219,0.707,6.04,2.154c0.406-0.037,0.794-0.053,1.05-0.053
			c3.23,0,6.044,1.987,7.2,4.86c4.298-0.086,7.992,3.276,7.992,7.306C53.495,22.39,49.935,25.737,45.72,25.737z M31.213,8.162
			c-3.229,0-5.733,2.373-6.091,5.77l-0.113,1.078l-0.965,0.493c-1.253,0.641-2.163,1.871-2.163,2.926
			c0,1.591,1.317,3.309,3.445,3.309H45.72c2.161,0,3.775-1.747,3.775-3.309c0-1.562-1.614-3.309-3.775-3.309
			c-0.405,0-0.804,0.052-1.184,0.152l-2.229,0.592l-0.271-2.289c-0.225-1.889-1.829-3.312-3.733-3.312
			c-0.405,0-1.001,0.059-1.204,0.107l-1.039,0.246l-0.783-0.728C33.991,8.694,32.739,8.162,31.213,8.162z"/>
	</g>
	<path fill="#AACFE6" d="M38.907,19.683c-0.236,0-0.471,0.008-0.705,0.023c-1.313-3.75-4.883-6.382-9.004-6.382
		c-0.375,0-0.971,0.026-1.565,0.091c-2.328-1.911-4.861-2.842-7.716-2.842c-6.229,0-11.304,4.422-12.42,10.655
		c-2.677,1.738-4.416,4.603-4.416,7.403c0,4.935,4.095,8.949,9.128,8.949h26.699c5.183,0,9.561-4.099,9.561-8.949
		C48.468,23.78,44.09,19.683,38.907,19.683z"/>
	<path fill="#1D71B8" d="M17.242,45.642c-0.041-0.011-3.648,3.309-4.035,4.713c-0.387,1.404,0.438,2.856,1.841,3.243
		c1.404,0.388,2.856-0.438,3.243-1.841C18.679,50.353,17.283,45.653,17.242,45.642z"/>
	<path fill="#1D71B8" d="M27.847,45.565c-0.041-0.012-3.648,3.309-4.035,4.713c-0.387,1.404,0.438,2.855,1.841,3.242
		c1.404,0.388,2.856-0.438,3.243-1.842C29.284,50.275,27.887,45.577,27.847,45.565z"/>
	<path fill="#1D71B8" d="M14.783,34.31c-0.041-0.012-3.647,3.309-4.035,4.713s0.438,2.855,1.841,3.242
		c1.404,0.388,2.856-0.438,3.243-1.841C16.22,39.02,14.824,34.321,14.783,34.31z"/>
	<path fill="#1D71B8" d="M25.387,34.232c-0.041-0.011-3.647,3.309-4.035,4.713c-0.387,1.403,0.438,2.856,1.841,3.243
		c1.404,0.387,2.856-0.438,3.243-1.842C26.824,38.942,25.428,34.244,25.387,34.232z"/>
	<path fill="#1D71B8" d="M35.991,34.155c-0.041-0.011-3.646,3.309-4.034,4.713s0.438,2.856,1.841,3.243
		c1.404,0.388,2.857-0.437,3.244-1.841S36.032,34.167,35.991,34.155z"/>
</g>
</svg>
