<?xml version="1.0" encoding="utf-8"?>
<!-- Generator: Adobe Illustrator 16.0.4, SVG Export Plug-In . SVG Version: 6.00 Build 0)  -->
<!DOCTYPE svg PUBLIC "-//W3C//DTD SVG 1.1//EN" "http://www.w3.org/Graphics/SVG/1.1/DTD/svg11.dtd">
<svg version="1.1" id="Layer_1" xmlns="http://www.w3.org/2000/svg" xmlns:xlink="http://www.w3.org/1999/xlink" x="0px" y="0px"
	 width="56.693px" height="56.693px" viewBox="0 0 56.693 56.693" enable-background="new 0 0 56.693 56.693" xml:space="preserve">
<g>
	<path fill="#AACFE6" d="M43.232,16.281c-0.311,0-0.618,0.012-0.926,0.037c-1.396-4.18-5.34-7.127-9.9-7.127
		c-0.414,0-1.119,0.032-1.807,0.111c-2.577-2.137-5.381-3.178-8.543-3.178c-6.875,0-12.471,4.902-13.667,11.802
		c-2.972,1.897-4.906,5.053-4.906,8.135c0,5.393,4.477,9.779,9.979,9.779h29.771c5.67,0,10.461-4.479,10.461-9.779
		S48.902,16.281,43.232,16.281z"/>
	<path fill="#1D71B8" d="M43.488,44.831l-1.754-1.013l1.754-1.012c0.717-0.414,0.963-1.332,0.549-2.049s-1.33-0.965-2.049-0.549
		l-1.754,1.012v-2.024c0-0.829-0.671-1.5-1.5-1.5c-0.828,0-1.5,0.671-1.5,1.5v2.024l-1.753-1.012
		c-0.718-0.414-1.635-0.168-2.049,0.549c-0.415,0.717-0.169,1.635,0.549,2.049l1.753,1.012l-1.753,1.012
		c-0.718,0.414-0.964,1.332-0.549,2.049c0.278,0.482,0.782,0.751,1.3,0.751c0.255,0,0.513-0.065,0.749-0.202l1.753-1.012v2.025
		c0,0.828,0.672,1.5,1.5,1.5c0.829,0,1.5-0.672,1.5-1.5v-2.025l1.754,1.013c0.236,0.137,0.494,0.202,0.748,0.202
		c0.519,0,1.023-0.27,1.301-0.751C44.451,46.162,44.205,45.245,43.488,44.831z"/>
	<path fill="#1D71B8" d="M19.366,44.642c-0.041-0.011-3.648,3.308-4.035,4.712c-0.387,1.404,0.438,2.857,1.841,3.244
		c1.404,0.387,2.856-0.438,3.243-1.842C20.803,49.352,19.407,44.652,19.366,44.642z"/>
	<path fill="#1D71B8" d="M15.907,33.309c-0.041-0.011-3.647,3.309-4.035,4.713s0.438,2.856,1.841,3.243
		c1.404,0.388,2.856-0.438,3.243-1.841C17.344,38.02,15.948,33.32,15.907,33.309z"/>
	<path fill="#1D71B8" d="M26.512,33.232c-0.041-0.012-3.648,3.309-4.035,4.713c-0.387,1.403,0.438,2.855,1.842,3.242
		s2.855-0.438,3.242-1.842C27.948,37.941,26.553,33.244,26.512,33.232z"/>
</g>
</svg>
