<?xml version="1.0" encoding="utf-8"?>
<!-- Generator: Adobe Illustrator 16.0.4, SVG Export Plug-In . SVG Version: 6.00 Build 0)  -->
<!DOCTYPE svg PUBLIC "-//W3C//DTD SVG 1.1//EN" "http://www.w3.org/Graphics/SVG/1.1/DTD/svg11.dtd">
<svg version="1.1" id="Layer_1" xmlns="http://www.w3.org/2000/svg" xmlns:xlink="http://www.w3.org/1999/xlink" x="0px" y="0px"
	 width="56.693px" height="56.693px" viewBox="0 0 56.693 56.693" enable-background="new 0 0 56.693 56.693" xml:space="preserve">
<g>
	<path fill="#AACFE6" d="M42.843,14.027c-0.307,0-0.611,0.012-0.916,0.035c-1.385-4.144-5.294-7.065-9.816-7.065
		c-0.41,0-1.109,0.032-1.791,0.11c-2.555-2.119-5.335-3.151-8.47-3.151c-6.815,0-12.364,4.86-13.55,11.7
		c-2.946,1.881-4.864,5.01-4.864,8.065c0,5.346,4.438,9.694,9.894,9.694h29.514c5.623,0,10.373-4.439,10.373-9.694
		S48.466,14.027,42.843,14.027z"/>
	<g>
		<path fill="#1D71B8" d="M43.259,41.025l-1.6-0.924l1.6-0.924c0.654-0.379,0.879-1.215,0.501-1.87
			c-0.376-0.653-1.214-0.879-1.869-0.501L40.29,37.73v-1.848c0-0.756-0.611-1.368-1.367-1.368s-1.369,0.612-1.369,1.368v1.848
			l-1.6-0.923c-0.654-0.378-1.492-0.153-1.869,0.501c-0.379,0.654-0.154,1.49,0.5,1.869l1.6,0.924l-1.6,0.923
			c-0.654,0.378-0.879,1.216-0.5,1.87c0.254,0.438,0.713,0.685,1.186,0.685c0.232,0,0.468-0.06,0.684-0.185l1.6-0.924v1.848
			c0,0.757,0.613,1.369,1.369,1.369s1.367-0.612,1.367-1.369v-1.847l1.601,0.923c0.216,0.125,0.45,0.186,0.683,0.186
			c0.473,0,0.934-0.247,1.187-0.686C44.138,42.24,43.913,41.403,43.259,41.025z"/>
		<path fill="#1D71B8" d="M32.296,27.271c-0.377-0.655-1.213-0.879-1.87-0.502l-1.599,0.924v-1.848c0-0.756-0.613-1.367-1.369-1.367
			c-0.756,0-1.369,0.611-1.369,1.367v1.849l-1.599-0.924c-0.656-0.378-1.493-0.152-1.871,0.501
			c-0.378,0.654-0.153,1.492,0.501,1.869l1.6,0.924l-1.6,0.923c-0.654,0.378-0.879,1.216-0.501,1.87
			c0.254,0.439,0.713,0.685,1.187,0.685c0.233,0,0.468-0.06,0.684-0.185l1.599-0.924v1.848c0,0.756,0.613,1.369,1.369,1.369
			c0.755,0,1.369-0.613,1.369-1.369v-1.846l1.599,0.923c0.216,0.125,0.45,0.184,0.684,0.184c0.474,0,0.934-0.245,1.187-0.685
			c0.378-0.654,0.153-1.491-0.501-1.869l-1.601-0.924l1.601-0.924C32.449,28.763,32.674,27.926,32.296,27.271z"/>
		<path fill="#1D71B8" d="M32.296,45.314c-0.377-0.654-1.213-0.879-1.87-0.5l-1.599,0.923v-1.847c0-0.756-0.613-1.369-1.369-1.369
			c-0.756,0-1.369,0.613-1.369,1.369v1.848l-1.599-0.924c-0.656-0.379-1.493-0.153-1.871,0.5c-0.378,0.654-0.153,1.492,0.501,1.87
			l1.6,0.923l-1.6,0.924c-0.654,0.377-0.879,1.215-0.501,1.869c0.254,0.439,0.713,0.686,1.187,0.686
			c0.233,0,0.468-0.061,0.684-0.185l1.599-0.924v1.848c0,0.757,0.613,1.368,1.369,1.368c0.755,0,1.369-0.611,1.369-1.368v-1.847
			l1.599,0.924c0.216,0.124,0.45,0.184,0.684,0.184c0.474,0,0.934-0.246,1.187-0.685c0.378-0.655,0.153-1.491-0.501-1.87
			l-1.601-0.924l1.601-0.924C32.449,46.806,32.674,45.969,32.296,45.314z"/>
		<path fill="#1D71B8" d="M20.552,37.308c-0.377-0.653-1.213-0.879-1.869-0.501l-1.6,0.924v-1.848c0-0.756-0.612-1.368-1.369-1.368
			s-1.368,0.612-1.368,1.368v1.848l-1.601-0.923c-0.655-0.378-1.491-0.153-1.87,0.501c-0.377,0.654-0.153,1.49,0.501,1.869
			l1.6,0.924l-1.6,0.923c-0.654,0.378-0.878,1.216-0.501,1.87c0.254,0.438,0.714,0.685,1.187,0.685c0.232,0,0.467-0.06,0.683-0.185
			l1.601-0.924v1.848c0,0.757,0.612,1.369,1.368,1.369s1.369-0.612,1.369-1.369v-1.847l1.6,0.923
			c0.215,0.125,0.451,0.186,0.683,0.186c0.473,0,0.934-0.247,1.187-0.686c0.378-0.654,0.154-1.491-0.501-1.869l-1.6-0.924l1.6-0.924
			C20.706,38.799,20.93,37.963,20.552,37.308z"/>
	</g>
</g>
</svg>
