<?xml version="1.0" encoding="utf-8"?>
<!-- Generator: Adobe Illustrator 16.0.4, SVG Export Plug-In . SVG Version: 6.00 Build 0)  -->
<!DOCTYPE svg PUBLIC "-//W3C//DTD SVG 1.1//EN" "http://www.w3.org/Graphics/SVG/1.1/DTD/svg11.dtd">
<svg version="1.1" id="Layer_1" xmlns="http://www.w3.org/2000/svg" xmlns:xlink="http://www.w3.org/1999/xlink" x="0px" y="0px"
	 width="56.693px" height="56.693px" viewBox="0 0 56.693 56.693" enable-background="new 0 0 56.693 56.693" xml:space="preserve">
<g>
	<g>
		<linearGradient id="SVGID_1_" gradientUnits="userSpaceOnUse" x1="27.9644" y1="30.2695" x2="27.9644" y2="5.0005">
			<stop  offset="0.2222" style="stop-color:#1D71B8"/>
			<stop  offset="1" style="stop-color:#7AC0E2"/>
		</linearGradient>
		<path fill="url(#SVGID_1_)" d="M42.389,15.005c-0.852,0-1.67,0.111-2.441,0.315c-0.488-4.111-3.98-7.299-8.223-7.299
			c-0.662,0-1.777,0.085-2.393,0.231C27.16,6.235,24.727,5,21.53,5C15.25,5,10.557,9.761,9.913,15.87
			c-2.574,1.317-4.678,3.97-4.678,6.768c0,3.952,3.243,7.632,7.83,7.632h29.324c4.586,0,8.305-3.68,8.305-7.632
			C50.693,18.685,46.975,15.005,42.389,15.005z"/>
		<path fill="#1D71B8" d="M42.389,32.269H13.065c-5.42,0-9.83-4.32-9.83-9.631c0-3.036,1.905-6.144,4.833-8.012
			C9.247,7.829,14.758,3,21.53,3c3.115,0,5.876,1.025,8.416,3.13c0.678-0.077,1.371-0.109,1.779-0.109
			c4.494,0,8.379,2.903,9.752,7.02c0.303-0.024,0.607-0.036,0.912-0.036c5.586,0,10.305,4.411,10.305,9.632
			S47.975,32.269,42.389,32.269z M21.53,7c-5.023,0-9.073,3.819-9.628,9.08l-0.114,1.077l-0.964,0.493
			c-2.113,1.082-3.589,3.132-3.589,4.987c0,2.708,2.229,5.632,5.83,5.632h29.324c3.357,0,6.305-2.632,6.305-5.632
			c0-3-2.947-5.632-6.305-5.632c-0.656,0-1.305,0.083-1.93,0.249l-2.227,0.587l-0.271-2.285c-0.373-3.155-3.055-5.535-6.236-5.535
			c-0.607,0-1.547,0.086-1.932,0.178l-1.041,0.246l-0.781-0.728C25.947,7.838,23.961,7,21.53,7z"/>
	</g>
	<path fill="#C90C0F" d="M24.779,54.134c-0.328,0-0.66-0.08-0.967-0.25c-0.939-0.52-1.3-1.689-0.817-2.648l5.364-10.654
		l-6.167,2.346c-0.395,0.152-0.84,0.184-1.274,0.059c-0.049-0.014-0.097-0.029-0.144-0.047c-0.001,0-0.001,0-0.001,0h-0.001
		c-0.411-0.152-0.745-0.426-0.973-0.77c-0.084-0.127-0.152-0.262-0.205-0.4c-0.135-0.357-0.169-0.754-0.08-1.146
		c0.014-0.061,0.03-0.121,0.05-0.182l5.289-16.708c0.264-0.832,1.035-1.396,1.908-1.396h3.383c0.697,0,1.346,0.364,1.709,0.961
		c0.363,0.597,0.387,1.34,0.066,1.959l-6.264,12.072l6.09-2.316c0.01-0.004,0.02-0.006,0.029-0.01l2-0.732
		c0.795-0.293,1.691-0.049,2.23,0.607c0.541,0.654,0.607,1.58,0.168,2.307l-9.682,15.986C26.117,53.79,25.457,54.134,24.779,54.134z
		"/>
</g>
</svg>
