<?xml version="1.0" encoding="utf-8"?>
<!-- Generator: Adobe Illustrator 16.0.4, SVG Export Plug-In . SVG Version: 6.00 Build 0)  -->
<!DOCTYPE svg PUBLIC "-//W3C//DTD SVG 1.1//EN" "http://www.w3.org/Graphics/SVG/1.1/DTD/svg11.dtd">
<svg version="1.1" id="Layer_1" xmlns="http://www.w3.org/2000/svg" xmlns:xlink="http://www.w3.org/1999/xlink" x="0px" y="0px"
	 width="56.693px" height="56.693px" viewBox="0 0 56.693 56.693" enable-background="new 0 0 56.693 56.693" xml:space="preserve">
<g>
	<linearGradient id="SVGID_1_" gradientUnits="userSpaceOnUse" x1="33.6279" y1="29.9561" x2="33.6279" y2="54.3232">
		<stop  offset="0" style="stop-color:#232427"/>
		<stop  offset="1" style="stop-color:#4D6B7F"/>
	</linearGradient>
	<path fill="url(#SVGID_1_)" d="M21.926,29.956c0,0-1.456,9.248,9.705,13.365c7.188,2.652-3.713,4.346-2.23,8.546
		c1.445,4.092,1.811,1.835,1.811,1.835s-1.348-2.497,5.098-3.744c6.535-1.265,8.354-4.344,6.518-8.402
		c-1.838-4.058-1.389-5.967,1.061-8.307s1.17-3.293,1.17-3.293H21.926z"/>
	<g>
		<linearGradient id="SVGID_2_" gradientUnits="userSpaceOnUse" x1="12.9897" y1="15.4023" x2="51.6934" y2="15.4023">
			<stop  offset="0" style="stop-color:#232427"/>
			<stop  offset="1" style="stop-color:#4D6B7F"/>
		</linearGradient>
		<path fill="url(#SVGID_2_)" d="M44.623,13.477c-0.723,0-1.42,0.082-2.078,0.23c-0.416-3.01-3.391-5.346-7-5.346
			c-0.564,0-1.516,0.063-2.039,0.17c-1.848-1.477-3.918-2.384-6.643-2.384c-5.347,0-9.343,3.488-9.891,7.963
			c-2.192,0.964-3.982,2.908-3.982,4.957c0,2.895,2.761,5.589,6.665,5.589h24.968c3.904,0,7.07-2.695,7.07-5.589
			C51.693,16.171,48.527,13.477,44.623,13.477z"/>
		<path fill="#4D6B7F" d="M44.623,26.657H19.655c-4.778,0-8.665-3.405-8.665-7.589c0-2.399,1.646-4.822,4.188-6.287
			c1.159-5.063,5.9-8.633,11.686-8.633c2.648,0,5.008,0.751,7.186,2.292c0.57-0.056,1.152-0.078,1.496-0.078
			c3.797,0,7.107,2.104,8.434,5.134c0.215-0.012,0.43-0.018,0.645-0.018c4.918,0,9.07,3.476,9.07,7.59
			C53.693,23.181,49.541,26.657,44.623,26.657z M26.863,8.148c-4.14,0-7.465,2.61-7.906,6.206l-0.139,1.129l-1.041,0.458
			c-1.59,0.699-2.788,2.043-2.788,3.126c0,1.726,1.783,3.589,4.665,3.589h24.968c2.902,0,5.07-1.895,5.07-3.589
			c0-1.695-2.168-3.59-5.07-3.59c-0.555,0-1.105,0.061-1.637,0.181l-2.125,0.479l-0.297-2.156c-0.285-2.063-2.443-3.62-5.02-3.62
			c-0.518,0-1.312,0.063-1.637,0.129l-0.92,0.188l-0.732-0.585C30.574,8.748,28.91,8.148,26.863,8.148z"/>
	</g>
	<g>
		<path fill="#C90C0F" d="M25.713,50.65L17.02,35.336c-0.422-0.747-1.213-1.208-2.072-1.208c-0.857,0-1.648,0.461-2.072,1.208
			L4.182,50.65c-0.418,0.737-0.414,1.644,0.014,2.376c0.426,0.732,1.211,1.185,2.061,1.185h17.385c0.847,0,1.632-0.452,2.058-1.185
			C26.127,52.294,26.131,51.388,25.713,50.65z"/>
		<path fill="#FFFFFF" d="M16.135,51.397c-0.291,0.259-0.637,0.39-1.027,0.39c-0.395,0-0.744-0.13-1.039-0.385
			c-0.301-0.263-0.453-0.629-0.453-1.091c0-0.404,0.145-0.754,0.428-1.037c0.285-0.284,0.637-0.429,1.047-0.429
			s0.766,0.144,1.057,0.427c0.289,0.285,0.438,0.635,0.438,1.039C16.584,50.769,16.434,51.132,16.135,51.397z"/>
		<path fill="#FFFFFF" d="M16.522,41.535l-0.379,4.337c-0.043,0.54-0.133,0.947-0.279,1.244c-0.16,0.326-0.439,0.5-0.809,0.5
			c-0.375,0-0.652-0.17-0.801-0.49c-0.131-0.287-0.223-0.701-0.277-1.27l-0.283-4.221c-0.053-0.834-0.078-1.416-0.078-1.779
			c0-0.525,0.143-0.945,0.426-1.246c0.283-0.304,0.66-0.459,1.119-0.459c0.566,0,0.955,0.207,1.152,0.611
			c0.182,0.373,0.271,0.891,0.271,1.578C16.584,40.73,16.563,41.132,16.522,41.535z"/>
	</g>
</g>
</svg>
