<?xml version="1.0" encoding="utf-8"?>
<!-- Generator: Adobe Illustrator 16.0.4, SVG Export Plug-In . SVG Version: 6.00 Build 0)  -->
<!DOCTYPE svg PUBLIC "-//W3C//DTD SVG 1.1//EN" "http://www.w3.org/Graphics/SVG/1.1/DTD/svg11.dtd">
<svg version="1.1" id="Layer_1" xmlns="http://www.w3.org/2000/svg" xmlns:xlink="http://www.w3.org/1999/xlink" x="0px" y="0px"
	 width="56.693px" height="56.693px" viewBox="0 0 56.693 56.693" enable-background="new 0 0 56.693 56.693" xml:space="preserve">
<g>
	<path fill="#FFFFFF" d="M38.993,50.963l-3.643-3.688l-5.81-5.884l-5.377-5.443l-5.811-5.885l-4.983-5.047
		c1.705-2.122,7.496-8.621,16.836-11.867l3.369,6.162l3.938,7.207l3.641,6.668l3.939,7.208l2.484,4.549
		C46.823,46.216,44.251,49.861,38.993,50.963z"/>
	<path fill="none" d="M30.007,14.15c-8.882,3.141-14.398,9.383-16.02,11.42l4.785,4.793L33.253,20.02L30.007,14.15z"/>
	<polygon fill="none" points="37.05,26.883 24.351,35.953 29.513,41.125 40.563,33.23 	"/>
	<path fill="none" d="M35.093,46.715l3.498,3.504c5.049-1.081,7.457-4.559,8.168-5.789l-2.398-4.336L35.093,46.715z"/>
	<polygon fill="#C90C0F" points="33.253,20.02 18.772,30.363 24.351,35.953 37.05,26.883 	"/>
	<polygon fill="#C90C0F" points="40.563,33.23 29.513,41.125 35.093,46.715 44.36,40.094 	"/>
	<path fill="#1A1A1A" d="M48.771,43.935L31.384,12.508c-0.033-0.127-0.115-0.235-0.23-0.303c-0.234-0.219-0.561-0.306-0.885-0.236
		L9.965,7.257V6.356c0-0.829-0.672-1.5-1.5-1.5s-1.5,0.671-1.5,1.5v45.837c0,0.828,0.672,1.5,1.5,1.5s1.5-0.672,1.5-1.5V14.559
		L11.69,25.48c-0.058,0.314,0.027,0.646,0.266,0.886L37.55,52.009c0.189,0.189,0.445,0.294,0.709,0.294
		c0.057,0,0.115-0.006,0.172-0.016c7.484-1.316,10.26-7.202,10.375-7.452C48.937,44.547,48.925,44.212,48.771,43.935z M9.988,8.289
		l18.515,4.297c-8.816,3.365-14.216,9.384-15.999,11.631L9.988,8.289z M38.591,50.219l-3.498-3.504l-5.58-5.59l-5.162-5.172
		l-5.579-5.59l-4.785-4.793c1.622-2.037,7.138-8.279,16.02-11.42l3.246,5.869l3.797,6.863l3.514,6.348l3.797,6.863l2.398,4.336
		C46.048,45.66,43.64,49.138,38.591,50.219z"/>
</g>
</svg>
